<svg width="1337" height="198" viewBox="0 0 1337 198" fill="none" xmlns="http://www.w3.org/2000/svg">
<path d="M316.227 75.5H296.318C295.955 72.9242 295.212 70.6364 294.091 68.6364C292.97 66.6061 291.53 64.8788 289.773 63.4545C288.015 62.0303 285.985 60.9394 283.682 60.1818C281.409 59.4242 278.939 59.0455 276.273 59.0455C271.455 59.0455 267.258 60.2424 263.682 62.6364C260.106 65 257.333 68.4545 255.364 73C253.394 77.5151 252.409 83 252.409 89.4545C252.409 96.0909 253.394 101.667 255.364 106.182C257.364 110.697 260.152 114.106 263.727 116.409C267.303 118.712 271.439 119.864 276.136 119.864C278.773 119.864 281.212 119.515 283.455 118.818C285.727 118.121 287.742 117.106 289.5 115.773C291.258 114.409 292.712 112.758 293.864 110.818C295.045 108.879 295.864 106.667 296.318 104.182L316.227 104.273C315.712 108.545 314.424 112.667 312.364 116.636C310.333 120.576 307.591 124.106 304.136 127.227C300.712 130.318 296.621 132.773 291.864 134.591C287.136 136.379 281.788 137.273 275.818 137.273C267.515 137.273 260.091 135.394 253.545 131.636C247.03 127.879 241.879 122.439 238.091 115.318C234.333 108.197 232.455 99.5758 232.455 89.4545C232.455 79.303 234.364 70.6667 238.182 63.5455C242 56.4242 247.182 51 253.727 47.2727C260.273 43.5151 267.636 41.6364 275.818 41.6364C281.212 41.6364 286.212 42.3939 290.818 43.9091C295.455 45.4242 299.561 47.6364 303.136 50.5454C306.712 53.4242 309.621 56.9545 311.864 61.1364C314.136 65.3182 315.591 70.1061 316.227 75.5ZM349.886 137.318C345.432 137.318 341.462 136.545 337.977 135C334.492 133.424 331.735 131.106 329.705 128.045C327.705 124.955 326.705 121.106 326.705 116.5C326.705 112.621 327.417 109.364 328.841 106.727C330.265 104.091 332.205 101.97 334.659 100.364C337.114 98.7576 339.902 97.5455 343.023 96.7273C346.174 95.9091 349.477 95.3333 352.932 95C356.992 94.5758 360.265 94.1818 362.75 93.8182C365.235 93.4242 367.038 92.8485 368.159 92.0909C369.28 91.3333 369.841 90.2121 369.841 88.7273V88.4545C369.841 85.5758 368.932 83.3485 367.114 81.7727C365.326 80.197 362.78 79.4091 359.477 79.4091C355.992 79.4091 353.22 80.1818 351.159 81.7273C349.098 83.2424 347.735 85.1515 347.068 87.4545L329.159 86C330.068 81.7576 331.856 78.0909 334.523 75C337.189 71.8788 340.629 69.4848 344.841 67.8182C349.083 66.1212 353.992 65.2727 359.568 65.2727C363.447 65.2727 367.159 65.7273 370.705 66.6364C374.28 67.5455 377.447 68.9545 380.205 70.8636C382.992 72.7727 385.189 75.2273 386.795 78.2273C388.402 81.197 389.205 84.7576 389.205 88.9091V136H370.841V126.318H370.295C369.174 128.5 367.674 130.424 365.795 132.091C363.917 133.727 361.659 135.015 359.023 135.955C356.386 136.864 353.341 137.318 349.886 137.318ZM355.432 123.955C358.28 123.955 360.795 123.394 362.977 122.273C365.159 121.121 366.871 119.576 368.114 117.636C369.356 115.697 369.977 113.5 369.977 111.045V103.636C369.371 104.03 368.538 104.394 367.477 104.727C366.447 105.03 365.28 105.318 363.977 105.591C362.674 105.833 361.371 106.061 360.068 106.273C358.765 106.455 357.583 106.621 356.523 106.773C354.25 107.106 352.265 107.636 350.568 108.364C348.871 109.091 347.553 110.076 346.614 111.318C345.674 112.53 345.205 114.045 345.205 115.864C345.205 118.5 346.159 120.515 348.068 121.909C350.008 123.273 352.462 123.955 355.432 123.955ZM423.591 42.9091V136H404.227V42.9091H423.591ZM465.545 59.1364V42.9091H542V59.1364H513.5V136H494.045V59.1364H465.545ZM575.92 137.364C568.739 137.364 562.557 135.909 557.375 133C552.223 130.061 548.254 125.909 545.466 120.545C542.678 115.152 541.284 108.773 541.284 101.409C541.284 94.2273 542.678 87.9242 545.466 82.5C548.254 77.0758 552.178 72.8485 557.239 69.8182C562.33 66.7879 568.299 65.2727 575.148 65.2727C579.754 65.2727 584.042 66.0152 588.011 67.5C592.011 68.9545 595.496 71.1515 598.466 74.0909C601.466 77.0303 603.799 80.7273 605.466 85.1818C607.133 89.6061 607.966 94.7879 607.966 100.727V106.045H549.011V94.0455H589.739C589.739 91.2576 589.133 88.7879 587.92 86.6364C586.708 84.4848 585.027 82.803 582.875 81.5909C580.754 80.3485 578.284 79.7273 575.466 79.7273C572.527 79.7273 569.92 80.4091 567.648 81.7727C565.405 83.1061 563.648 84.9091 562.375 87.1818C561.102 89.4242 560.451 91.9242 560.42 94.6818V106.091C560.42 109.545 561.057 112.53 562.33 115.045C563.633 117.561 565.466 119.5 567.83 120.864C570.193 122.227 572.996 122.909 576.239 122.909C578.39 122.909 580.36 122.606 582.148 122C583.936 121.394 585.466 120.485 586.739 119.273C588.011 118.061 588.981 116.576 589.648 114.818L607.557 116C606.648 120.303 604.784 124.061 601.966 127.273C599.178 130.455 595.572 132.939 591.148 134.727C586.754 136.485 581.678 137.364 575.92 137.364ZM652.148 137.364C644.996 137.364 638.845 135.848 633.693 132.818C628.572 129.758 624.633 125.515 621.875 120.091C619.148 114.667 617.784 108.424 617.784 101.364C617.784 94.2121 619.163 87.9394 621.92 82.5455C624.708 77.1212 628.663 72.8939 633.784 69.8636C638.905 66.803 644.996 65.2727 652.057 65.2727C658.148 65.2727 663.481 66.3788 668.057 68.5909C672.633 70.803 676.254 73.9091 678.92 77.9091C681.587 81.9091 683.057 86.6061 683.33 92H665.057C664.542 88.5151 663.178 85.7121 660.966 83.5909C658.784 81.4394 655.92 80.3636 652.375 80.3636C649.375 80.3636 646.754 81.1818 644.511 82.8182C642.299 84.4242 640.572 86.7727 639.33 89.8636C638.087 92.9545 637.466 96.697 637.466 101.091C637.466 105.545 638.072 109.333 639.284 112.455C640.527 115.576 642.269 117.955 644.511 119.591C646.754 121.227 649.375 122.045 652.375 122.045C654.587 122.045 656.572 121.591 658.33 120.682C660.117 119.773 661.587 118.455 662.739 116.727C663.92 114.97 664.693 112.864 665.057 110.409H683.33C683.027 115.742 681.572 120.439 678.966 124.5C676.39 128.53 672.83 131.682 668.284 133.955C663.739 136.227 658.36 137.364 652.148 137.364ZM715.091 95.6364V136H695.727V42.9091H714.545V78.5H715.364C716.939 74.3788 719.485 71.1515 723 68.8182C726.515 66.4545 730.924 65.2727 736.227 65.2727C741.076 65.2727 745.303 66.3333 748.909 68.4545C752.545 70.5455 755.364 73.5606 757.364 77.5C759.394 81.4091 760.394 86.0909 760.364 91.5455V136H741V95C741.03 90.697 739.939 87.3485 737.727 84.9545C735.545 82.5606 732.485 81.3636 728.545 81.3636C725.909 81.3636 723.576 81.9242 721.545 83.0455C719.545 84.1667 717.97 85.803 716.818 87.9545C715.697 90.0758 715.121 92.6364 715.091 95.6364ZM794.966 95.6364V136H775.602V66.1818H794.057V78.5H794.875C796.42 74.4394 799.011 71.2273 802.648 68.8636C806.284 66.4697 810.693 65.2727 815.875 65.2727C820.723 65.2727 824.951 66.3333 828.557 68.4545C832.163 70.5758 834.966 73.6061 836.966 77.5455C838.966 81.4545 839.966 86.1212 839.966 91.5455V136H820.602V95C820.633 90.7273 819.542 87.3939 817.33 85C815.117 82.5758 812.072 81.3636 808.193 81.3636C805.587 81.3636 803.284 81.9242 801.284 83.0455C799.314 84.1667 797.769 85.803 796.648 87.9545C795.557 90.0758 794.996 92.6364 794.966 95.6364ZM886.773 137.364C879.712 137.364 873.606 135.864 868.455 132.864C863.333 129.833 859.379 125.621 856.591 120.227C853.803 114.803 852.409 108.515 852.409 101.364C852.409 94.1515 853.803 87.8485 856.591 82.4545C859.379 77.0303 863.333 72.8182 868.455 69.8182C873.606 66.7879 879.712 65.2727 886.773 65.2727C893.833 65.2727 899.924 66.7879 905.045 69.8182C910.197 72.8182 914.167 77.0303 916.955 82.4545C919.742 87.8485 921.136 94.1515 921.136 101.364C921.136 108.515 919.742 114.803 916.955 120.227C914.167 125.621 910.197 129.833 905.045 132.864C899.924 135.864 893.833 137.364 886.773 137.364ZM886.864 122.364C890.076 122.364 892.758 121.455 894.909 119.636C897.061 117.788 898.682 115.273 899.773 112.091C900.894 108.909 901.455 105.288 901.455 101.227C901.455 97.1667 900.894 93.5455 899.773 90.3636C898.682 87.1818 897.061 84.6667 894.909 82.8182C892.758 80.9697 890.076 80.0455 886.864 80.0455C883.621 80.0455 880.894 80.9697 878.682 82.8182C876.5 84.6667 874.848 87.1818 873.727 90.3636C872.636 93.5455 872.091 97.1667 872.091 101.227C872.091 105.288 872.636 108.909 873.727 112.091C874.848 115.273 876.5 117.788 878.682 119.636C880.894 121.455 883.621 122.364 886.864 122.364ZM953.091 42.9091V136H933.727V42.9091H953.091ZM1000.15 137.364C993.087 137.364 986.981 135.864 981.83 132.864C976.708 129.833 972.754 125.621 969.966 120.227C967.178 114.803 965.784 108.515 965.784 101.364C965.784 94.1515 967.178 87.8485 969.966 82.4545C972.754 77.0303 976.708 72.8182 981.83 69.8182C986.981 66.7879 993.087 65.2727 1000.15 65.2727C1007.21 65.2727 1013.3 66.7879 1018.42 69.8182C1023.57 72.8182 1027.54 77.0303 1030.33 82.4545C1033.12 87.8485 1034.51 94.1515 1034.51 101.364C1034.51 108.515 1033.12 114.803 1030.33 120.227C1027.54 125.621 1023.57 129.833 1018.42 132.864C1013.3 135.864 1007.21 137.364 1000.15 137.364ZM1000.24 122.364C1003.45 122.364 1006.13 121.455 1008.28 119.636C1010.44 117.788 1012.06 115.273 1013.15 112.091C1014.27 108.909 1014.83 105.288 1014.83 101.227C1014.83 97.1667 1014.27 93.5455 1013.15 90.3636C1012.06 87.1818 1010.44 84.6667 1008.28 82.8182C1006.13 80.9697 1003.45 80.0455 1000.24 80.0455C996.996 80.0455 994.269 80.9697 992.057 82.8182C989.875 84.6667 988.223 87.1818 987.102 90.3636C986.011 93.5455 985.466 97.1667 985.466 101.227C985.466 105.288 986.011 108.909 987.102 112.091C988.223 115.273 989.875 117.788 992.057 119.636C994.269 121.455 996.996 122.364 1000.24 122.364ZM1078.56 163.636C1072.28 163.636 1066.91 162.773 1062.42 161.045C1057.97 159.348 1054.42 157.03 1051.78 154.091C1049.15 151.152 1047.44 147.848 1046.65 144.182L1064.56 141.773C1065.1 143.167 1065.97 144.47 1067.15 145.682C1068.33 146.894 1069.89 147.864 1071.83 148.591C1073.8 149.348 1076.19 149.727 1079.01 149.727C1083.22 149.727 1086.69 148.697 1089.42 146.636C1092.18 144.606 1093.56 141.197 1093.56 136.409V123.636H1092.74C1091.89 125.576 1090.62 127.409 1088.92 129.136C1087.22 130.864 1085.04 132.273 1082.38 133.364C1079.71 134.455 1076.53 135 1072.83 135C1067.59 135 1062.81 133.788 1058.51 131.364C1054.24 128.909 1050.83 125.167 1048.28 120.136C1045.77 115.076 1044.51 108.682 1044.51 100.955C1044.51 93.0455 1045.8 86.4394 1048.38 81.1364C1050.95 75.8333 1054.38 71.8636 1058.65 69.2273C1062.95 66.5909 1067.66 65.2727 1072.78 65.2727C1076.69 65.2727 1079.97 65.9394 1082.6 67.2727C1085.24 68.5758 1087.36 70.2121 1088.97 72.1818C1090.6 74.1212 1091.86 76.0303 1092.74 77.9091H1093.47V66.1818H1112.69V136.682C1112.69 142.621 1111.24 147.591 1108.33 151.591C1105.42 155.591 1101.39 158.591 1096.24 160.591C1091.12 162.621 1085.22 163.636 1078.56 163.636ZM1078.97 120.455C1082.09 120.455 1084.72 119.682 1086.88 118.136C1089.06 116.561 1090.72 114.318 1091.88 111.409C1093.06 108.47 1093.65 104.955 1093.65 100.864C1093.65 96.7727 1093.07 93.2273 1091.92 90.2273C1090.77 87.197 1089.1 84.8485 1086.92 83.1818C1084.74 81.5151 1082.09 80.6818 1078.97 80.6818C1075.78 80.6818 1073.1 81.5455 1070.92 83.2727C1068.74 84.9697 1067.09 87.3333 1065.97 90.3636C1064.84 93.3939 1064.28 96.8939 1064.28 100.864C1064.28 104.894 1064.84 108.379 1065.97 111.318C1067.12 114.227 1068.77 116.485 1070.92 118.091C1073.1 119.667 1075.78 120.455 1078.97 120.455ZM1128.1 136V66.1818H1147.47V136H1128.1ZM1137.83 57.1818C1134.95 57.1818 1132.48 56.2273 1130.42 54.3182C1128.39 52.3788 1127.38 50.0606 1127.38 47.3636C1127.38 44.697 1128.39 42.4091 1130.42 40.5C1132.48 38.5606 1134.95 37.5909 1137.83 37.5909C1140.71 37.5909 1143.16 38.5606 1145.19 40.5C1147.25 42.4091 1148.28 44.697 1148.28 47.3636C1148.28 50.0606 1147.25 52.3788 1145.19 54.3182C1143.16 56.2273 1140.71 57.1818 1137.83 57.1818ZM1194.8 137.364C1187.61 137.364 1181.43 135.909 1176.25 133C1171.1 130.061 1167.13 125.909 1164.34 120.545C1161.55 115.152 1160.16 108.773 1160.16 101.409C1160.16 94.2273 1161.55 87.9242 1164.34 82.5C1167.13 77.0758 1171.05 72.8485 1176.11 69.8182C1181.2 66.7879 1187.17 65.2727 1194.02 65.2727C1198.63 65.2727 1202.92 66.0152 1206.89 67.5C1210.89 68.9545 1214.37 71.1515 1217.34 74.0909C1220.34 77.0303 1222.67 80.7273 1224.34 85.1818C1226.01 89.6061 1226.84 94.7879 1226.84 100.727V106.045H1167.89V94.0455H1208.61C1208.61 91.2576 1208.01 88.7879 1206.8 86.6364C1205.58 84.4848 1203.9 82.803 1201.75 81.5909C1199.63 80.3485 1197.16 79.7273 1194.34 79.7273C1191.4 79.7273 1188.8 80.4091 1186.52 81.7727C1184.28 83.1061 1182.52 84.9091 1181.25 87.1818C1179.98 89.4242 1179.33 91.9242 1179.3 94.6818V106.091C1179.3 109.545 1179.93 112.53 1181.2 115.045C1182.51 117.561 1184.34 119.5 1186.7 120.864C1189.07 122.227 1191.87 122.909 1195.11 122.909C1197.27 122.909 1199.23 122.606 1201.02 122C1202.81 121.394 1204.34 120.485 1205.61 119.273C1206.89 118.061 1207.86 116.576 1208.52 114.818L1226.43 116C1225.52 120.303 1223.66 124.061 1220.84 127.273C1218.05 130.455 1214.45 132.939 1210.02 134.727C1205.63 136.485 1200.55 137.364 1194.8 137.364ZM1297.57 86.0909L1279.84 87.1818C1279.54 85.6667 1278.89 84.303 1277.89 83.0909C1276.89 81.8485 1275.57 80.8636 1273.93 80.1364C1272.33 79.3788 1270.4 79 1268.16 79C1265.16 79 1262.63 79.6364 1260.57 80.9091C1258.51 82.1515 1257.48 83.8182 1257.48 85.9091C1257.48 87.5758 1258.14 88.9848 1259.48 90.1364C1260.81 91.2879 1263.1 92.2121 1266.34 92.9091L1278.98 95.4545C1285.77 96.8485 1290.83 99.0909 1294.16 102.182C1297.49 105.273 1299.16 109.333 1299.16 114.364C1299.16 118.939 1297.81 122.955 1295.11 126.409C1292.45 129.864 1288.78 132.561 1284.11 134.5C1279.48 136.409 1274.13 137.364 1268.07 137.364C1258.83 137.364 1251.46 135.439 1245.98 131.591C1240.52 127.712 1237.33 122.439 1236.39 115.773L1255.43 114.773C1256.01 117.591 1257.4 119.742 1259.61 121.227C1261.83 122.682 1264.66 123.409 1268.11 123.409C1271.51 123.409 1274.23 122.758 1276.3 121.455C1278.39 120.121 1279.45 118.409 1279.48 116.318C1279.45 114.561 1278.7 113.121 1277.25 112C1275.8 110.848 1273.55 109.97 1270.52 109.364L1258.43 106.955C1251.61 105.591 1246.54 103.227 1243.2 99.8636C1239.9 96.5 1238.25 92.2121 1238.25 87C1238.25 82.5151 1239.46 78.6515 1241.89 75.4091C1244.34 72.1667 1247.78 69.6667 1252.2 67.9091C1256.66 66.1515 1261.87 65.2727 1267.84 65.2727C1276.66 65.2727 1283.6 67.1364 1288.66 70.8636C1293.75 74.5909 1296.72 79.6667 1297.57 86.0909Z" fill="#120E0E"/>
<mask id="mask0_3_52" style="mask-type:luminance" maskUnits="userSpaceOnUse" x="0" y="0" width="199" height="198">
<path d="M99.5 0C44.5475 0 0 44.3236 0 99C0 153.676 44.5475 198 99.5 198C154.453 198 199 153.676 199 99C199 44.3236 154.453 0 99.5 0Z" fill="white"/>
</mask>
<g mask="url(#mask0_3_52)">
<path d="M218.9 -19.8H-19.9V217.8H218.9V-19.8Z" fill="#545454"/>
<path d="M23.1747 118.727C19.8437 118.727 16.9084 118.038 14.3689 116.66C11.8284 115.283 9.84046 113.212 8.40521 110.449C6.97198 107.683 6.25537 104.272 6.25537 100.217C6.25537 96.1642 6.97198 92.7563 8.40521 89.9928C9.84046 87.2274 11.8284 85.1548 14.3689 83.7771C16.9084 82.3974 19.8437 81.7066 23.1747 81.7066C26.6536 81.7066 29.6091 82.3853 32.0413 83.7409C34.4756 85.0944 36.2125 87.1569 37.252 89.9284L32.0332 93.1027L31.4138 93.0785C30.6385 91.2094 29.5878 89.87 28.2599 89.0583C26.9319 88.2445 25.2365 87.8377 23.1747 87.8377C20.1727 87.8377 17.8315 88.8266 16.1503 90.8025C14.4681 92.7794 13.628 95.9175 13.628 100.217C13.628 104.501 14.4681 107.632 16.1503 109.611C17.8315 111.588 20.1727 112.576 23.1747 112.576C27.8763 112.576 30.7549 110.303 31.8105 105.756H32.4259L37.6973 108.487C36.7064 111.901 35.0151 114.461 32.6243 116.169C30.2326 117.875 27.0827 118.727 23.1747 118.727Z" fill="white"/>
<path d="M49.5197 118.727C47.7727 118.727 46.2565 118.407 44.969 117.768C43.6835 117.13 42.6947 116.191 42.0013 114.952C41.307 113.712 40.9608 112.221 40.9608 110.481C40.9608 108.876 41.307 107.527 42.0013 106.436C42.6947 105.344 43.7665 104.448 45.216 103.75C46.6674 103.052 48.5652 102.515 50.9084 102.138C52.541 101.875 53.7809 101.588 54.6291 101.276C55.4793 100.965 56.0522 100.613 56.3498 100.221C56.6464 99.826 56.7951 99.3254 56.7951 98.7182C56.7951 97.8481 56.4895 97.1834 55.8801 96.7242C55.2698 96.2649 54.2546 96.0353 52.8356 96.0353C51.3183 96.0353 49.876 96.3727 48.5075 97.0464C47.1391 97.7181 45.9508 98.6034 44.9447 99.7011H44.4508L41.5803 95.3948C42.9649 93.8671 44.6542 92.6777 46.6492 91.8257C48.6462 90.9717 50.8244 90.5447 53.1837 90.5447C56.7951 90.5447 59.4086 91.3081 61.026 92.8328C62.6424 94.3585 63.4512 96.5247 63.4512 99.3305V111.121C63.4512 112.336 63.9866 112.942 65.0585 112.942C65.4714 112.942 65.8743 112.869 66.269 112.721L66.6172 112.821L67.1111 117.571C66.7306 117.818 66.2012 118.02 65.5241 118.175C64.849 118.33 64.108 118.409 63.3014 118.409C61.6677 118.409 60.3944 118.097 59.4794 117.474C58.5644 116.849 57.9085 115.873 57.5118 114.545L56.9935 114.493C55.6575 117.316 53.1655 118.727 49.5197 118.727ZM51.6979 113.631C53.2819 113.631 54.5481 113.102 55.4955 112.044C56.4429 110.986 56.9166 109.514 56.9166 107.629V104.869L56.447 104.773C56.036 105.101 55.4965 105.376 54.8275 105.599C54.1605 105.819 53.1999 106.036 51.9448 106.247C50.46 106.495 49.3922 106.918 48.7424 107.516C48.0915 108.115 47.7666 108.964 47.7666 110.062C47.7666 111.228 48.1118 112.114 48.8031 112.721C49.4964 113.328 50.461 113.631 51.6979 113.631Z" fill="white"/>
<path d="M78.9867 118.727C76.5272 118.727 74.6506 118.068 73.355 116.749C72.0615 115.428 71.4157 113.421 71.4157 110.727V80.1557H78.2661V110.457C78.2661 112.114 78.9594 112.942 80.3471 112.942C80.7408 112.942 81.1608 112.878 81.6062 112.749L81.9544 112.845L82.5738 118.086C82.1933 118.285 81.6892 118.441 81.0637 118.554C80.4371 118.668 79.7448 118.727 78.9867 118.727Z" fill="white"/>
<path d="M102.165 111.738L103.946 116.785C103.203 117.392 102.271 117.868 101.149 118.211C100.028 118.555 98.7579 118.727 97.3389 118.727C94.3884 118.727 92.1455 117.928 90.61 116.33C89.0766 114.73 88.3104 112.402 88.3104 109.349V96.4502H84.1564V91.0362H88.3104V85.743L95.1648 84.6352V91.0362H102.906V96.4502H95.1648V108.857C95.1648 110.203 95.4441 111.184 96.0028 111.798C96.5636 112.413 97.3804 112.721 98.4523 112.721C99.675 112.721 100.74 112.393 101.647 111.738H102.165Z" fill="white"/>
<path d="M131.503 106.175H113.965C114.161 108.538 114.837 110.257 115.993 111.331C117.148 112.405 118.723 112.942 120.718 112.942C122.286 112.942 123.556 112.652 124.528 112.072C125.501 111.49 126.286 110.608 126.88 109.425H127.398L131.949 112.33C131.058 114.231 129.714 115.773 127.916 116.954C126.119 118.137 123.719 118.727 120.718 118.727C117.897 118.727 115.46 118.194 113.406 117.128C111.354 116.062 109.771 114.475 108.657 112.366C107.544 110.258 106.989 107.685 106.989 104.648C106.989 101.562 107.574 98.9619 108.746 96.845C109.917 94.7291 111.5 93.15 113.495 92.1077C115.489 91.0664 117.732 90.5447 120.224 90.5447C124.083 90.5447 127.039 91.5629 129.09 93.5982C131.144 95.6315 132.171 98.6175 132.171 102.557C132.171 103.983 132.123 105.091 132.026 105.881L131.503 106.175ZM125.617 101.768C125.552 99.7001 125.07 98.1945 124.171 97.2519C123.272 96.3092 121.957 95.8379 120.224 95.8379C116.76 95.8379 114.724 97.8148 114.114 101.768H125.617Z" fill="white"/>
<path d="M150.108 118.727C147.468 118.727 145.133 118.182 143.104 117.091C141.076 116.002 139.493 114.398 138.354 112.282C137.218 110.163 136.65 107.619 136.65 104.648C136.65 101.662 137.218 99.1109 138.354 96.994C139.493 94.8782 141.068 93.2749 143.079 92.1842C145.092 91.0916 147.393 90.5447 149.982 90.5447C155.739 90.5447 159.426 92.6213 161.043 96.7725L156.343 100.12H155.82C155.262 98.839 154.533 97.8873 153.634 97.2639C152.735 96.6416 151.518 96.3294 149.982 96.3294C148.003 96.3294 146.461 97.0102 145.355 98.3717C144.25 99.7333 143.699 101.826 143.699 104.648C143.699 107.438 144.258 109.518 145.379 110.888C146.501 112.257 148.077 112.942 150.108 112.942C151.592 112.942 152.85 112.545 153.881 111.75C154.911 110.955 155.65 109.811 156.096 108.318L156.614 108.265L161.488 110.924C160.794 113.223 159.511 115.099 157.638 116.552C155.768 118.002 153.258 118.727 150.108 118.727Z" fill="white"/>
<path d="M166.263 118.211V80.1557H173.114V94.6053L173.632 94.706C174.541 93.3766 175.654 92.3514 176.972 91.6283C178.292 90.9063 179.884 90.5447 181.749 90.5447C187.768 90.5447 190.778 93.9426 190.778 100.736V118.211H183.924V101.598C183.924 99.7434 183.552 98.3979 182.81 97.562C182.067 96.7242 180.913 96.3052 179.349 96.3052C177.435 96.3052 175.916 96.9417 174.794 98.2146C173.673 99.4856 173.114 101.465 173.114 104.156V118.211H166.263Z" fill="white"/>
</g>
</svg>
