<svg width="953" height="119" viewBox="0 0 953 119" fill="none" xmlns="http://www.w3.org/2000/svg">
<path d="M181.67 47.625H166.739C166.466 45.6932 165.909 43.9773 165.068 42.4773C164.227 40.9545 163.148 39.6591 161.83 38.5909C160.511 37.5227 158.989 36.7045 157.261 36.1364C155.557 35.5682 153.705 35.2841 151.705 35.2841C148.091 35.2841 144.943 36.1818 142.261 37.9773C139.58 39.75 137.5 42.3409 136.023 45.75C134.545 49.1364 133.807 53.25 133.807 58.0909C133.807 63.0682 134.545 67.25 136.023 70.6364C137.523 74.0227 139.614 76.5795 142.295 78.3068C144.977 80.0341 148.08 80.8977 151.602 80.8977C153.58 80.8977 155.409 80.6364 157.091 80.1136C158.795 79.5909 160.307 78.8295 161.625 77.8295C162.943 76.8068 164.034 75.5682 164.898 74.1136C165.784 72.6591 166.398 71 166.739 69.1364L181.67 69.2045C181.284 72.4091 180.318 75.5 178.773 78.4773C177.25 81.4318 175.193 84.0795 172.602 86.4205C170.034 88.7386 166.966 90.5795 163.398 91.9432C159.852 93.2841 155.841 93.9545 151.364 93.9545C145.136 93.9545 139.568 92.5455 134.659 89.7273C129.773 86.9091 125.909 82.8295 123.068 77.4886C120.25 72.1477 118.841 65.6818 118.841 58.0909C118.841 50.4773 120.273 44 123.136 38.6591C126 33.3182 129.886 29.25 134.795 26.4545C139.705 23.6364 145.227 22.2273 151.364 22.2273C155.409 22.2273 159.159 22.7955 162.614 23.9318C166.091 25.0682 169.17 26.7273 171.852 28.9091C174.534 31.0682 176.716 33.7159 178.398 36.8523C180.102 39.9886 181.193 43.5795 181.67 47.625ZM206.915 93.9886C203.574 93.9886 200.597 93.4091 197.983 92.25C195.369 91.0682 193.301 89.3295 191.778 87.0341C190.278 84.7159 189.528 81.8295 189.528 78.375C189.528 75.4659 190.063 73.0227 191.131 71.0455C192.199 69.0682 193.653 67.4773 195.494 66.2727C197.335 65.0682 199.426 64.1591 201.767 63.5455C204.131 62.9318 206.608 62.5 209.199 62.25C212.244 61.9318 214.699 61.6364 216.562 61.3636C218.426 61.0682 219.778 60.6364 220.619 60.0682C221.46 59.5 221.881 58.6591 221.881 57.5455V57.3409C221.881 55.1818 221.199 53.5114 219.835 52.3295C218.494 51.1477 216.585 50.5568 214.108 50.5568C211.494 50.5568 209.415 51.1364 207.869 52.2955C206.324 53.4318 205.301 54.8636 204.801 56.5909L191.369 55.5C192.051 52.3182 193.392 49.5682 195.392 47.25C197.392 44.9091 199.972 43.1136 203.131 41.8636C206.313 40.5909 209.994 39.9545 214.176 39.9545C217.085 39.9545 219.869 40.2955 222.528 40.9773C225.21 41.6591 227.585 42.7159 229.653 44.1477C231.744 45.5795 233.392 47.4205 234.597 49.6705C235.801 51.8977 236.403 54.5682 236.403 57.6818V93H222.631V85.7386H222.222C221.381 87.375 220.256 88.8182 218.847 90.0682C217.438 91.2955 215.744 92.2614 213.767 92.9659C211.79 93.6477 209.506 93.9886 206.915 93.9886ZM211.074 83.9659C213.21 83.9659 215.097 83.5455 216.733 82.7045C218.369 81.8409 219.653 80.6818 220.585 79.2273C221.517 77.7727 221.983 76.125 221.983 74.2841V68.7273C221.528 69.0227 220.903 69.2955 220.108 69.5455C219.335 69.7727 218.46 69.9886 217.483 70.1932C216.506 70.375 215.528 70.5455 214.551 70.7045C213.574 70.8409 212.688 70.9659 211.892 71.0795C210.188 71.3295 208.699 71.7273 207.426 72.2727C206.153 72.8182 205.165 73.5568 204.46 74.4886C203.756 75.3977 203.403 76.5341 203.403 77.8977C203.403 79.875 204.119 81.3864 205.551 82.4318C207.006 83.4545 208.847 83.9659 211.074 83.9659ZM262.193 23.1818V93H247.67V23.1818H262.193ZM293.659 35.3523V23.1818H351V35.3523H329.625V93H315.034V35.3523H293.659ZM376.44 94.0227C371.054 94.0227 366.418 92.9318 362.531 90.75C358.668 88.5455 355.69 85.4318 353.599 81.4091C351.509 77.3636 350.463 72.5795 350.463 67.0568C350.463 61.6705 351.509 56.9432 353.599 52.875C355.69 48.8068 358.634 45.6364 362.429 43.3636C366.247 41.0909 370.724 39.9545 375.861 39.9545C379.315 39.9545 382.531 40.5114 385.509 41.625C388.509 42.7159 391.122 44.3636 393.349 46.5682C395.599 48.7727 397.349 51.5455 398.599 54.8864C399.849 58.2045 400.474 62.0909 400.474 66.5455V70.5341H356.259V61.5341H386.804C386.804 59.4432 386.349 57.5909 385.44 55.9773C384.531 54.3636 383.27 53.1023 381.656 52.1932C380.065 51.2614 378.213 50.7955 376.099 50.7955C373.895 50.7955 371.94 51.3068 370.236 52.3295C368.554 53.3295 367.236 54.6818 366.281 56.3864C365.327 58.0682 364.838 59.9432 364.815 62.0114V70.5682C364.815 73.1591 365.293 75.3977 366.247 77.2841C367.224 79.1705 368.599 80.625 370.372 81.6477C372.145 82.6705 374.247 83.1818 376.679 83.1818C378.293 83.1818 379.77 82.9545 381.111 82.5C382.452 82.0455 383.599 81.3636 384.554 80.4545C385.509 79.5455 386.236 78.4318 386.736 77.1136L400.168 78C399.486 81.2273 398.088 84.0455 395.974 86.4545C393.884 88.8409 391.179 90.7045 387.861 92.0455C384.565 93.3636 380.759 94.0227 376.44 94.0227ZM433.611 94.0227C428.247 94.0227 423.634 92.8864 419.77 90.6136C415.929 88.3182 412.974 85.1364 410.906 81.0682C408.861 77 407.838 72.3182 407.838 67.0227C407.838 61.6591 408.872 56.9545 410.94 52.9091C413.031 48.8409 415.997 45.6705 419.838 43.3977C423.679 41.1023 428.247 39.9545 433.543 39.9545C438.111 39.9545 442.111 40.7841 445.543 42.4432C448.974 44.1023 451.69 46.4318 453.69 49.4318C455.69 52.4318 456.793 55.9545 456.997 60H443.293C442.906 57.3864 441.884 55.2841 440.224 53.6932C438.588 52.0795 436.44 51.2727 433.781 51.2727C431.531 51.2727 429.565 51.8864 427.884 53.1136C426.224 54.3182 424.929 56.0795 423.997 58.3977C423.065 60.7159 422.599 63.5227 422.599 66.8182C422.599 70.1591 423.054 73 423.963 75.3409C424.895 77.6818 426.202 79.4659 427.884 80.6932C429.565 81.9205 431.531 82.5341 433.781 82.5341C435.44 82.5341 436.929 82.1932 438.247 81.5114C439.588 80.8295 440.69 79.8409 441.554 78.5455C442.44 77.2273 443.02 75.6477 443.293 73.8068H456.997C456.77 77.8068 455.679 81.3295 453.724 84.375C451.793 87.3977 449.122 89.7614 445.713 91.4659C442.304 93.1705 438.27 94.0227 433.611 94.0227ZM480.818 62.7273V93H466.295V23.1818H480.409V49.875H481.023C482.205 46.7841 484.114 44.3636 486.75 42.6136C489.386 40.8409 492.693 39.9545 496.67 39.9545C500.307 39.9545 503.477 40.75 506.182 42.3409C508.909 43.9091 511.023 46.1705 512.523 49.125C514.045 52.0568 514.795 55.5682 514.773 59.6591V93H500.25V62.25C500.273 59.0227 499.455 56.5114 497.795 54.7159C496.159 52.9205 493.864 52.0227 490.909 52.0227C488.932 52.0227 487.182 52.4432 485.659 53.2841C484.159 54.125 482.977 55.3523 482.114 56.9659C481.273 58.5568 480.841 60.4773 480.818 62.7273ZM540.724 62.7273V93H526.202V40.6364H540.043V49.875H540.656C541.815 46.8295 543.759 44.4205 546.486 42.6477C549.213 40.8523 552.52 39.9545 556.406 39.9545C560.043 39.9545 563.213 40.75 565.918 42.3409C568.622 43.9318 570.724 46.2045 572.224 49.1591C573.724 52.0909 574.474 55.5909 574.474 59.6591V93H559.952V62.25C559.974 59.0455 559.156 56.5455 557.497 54.75C555.838 52.9318 553.554 52.0227 550.645 52.0227C548.69 52.0227 546.963 52.4432 545.463 53.2841C543.986 54.125 542.827 55.3523 541.986 56.9659C541.168 58.5568 540.747 60.4773 540.724 62.7273ZM609.58 94.0227C604.284 94.0227 599.705 92.8977 595.841 90.6477C592 88.375 589.034 85.2159 586.943 81.1705C584.852 77.1023 583.807 72.3864 583.807 67.0227C583.807 61.6136 584.852 56.8864 586.943 52.8409C589.034 48.7727 592 45.6136 595.841 43.3636C599.705 41.0909 604.284 39.9545 609.58 39.9545C614.875 39.9545 619.443 41.0909 623.284 43.3636C627.148 45.6136 630.125 48.7727 632.216 52.8409C634.307 56.8864 635.352 61.6136 635.352 67.0227C635.352 72.3864 634.307 77.1023 632.216 81.1705C630.125 85.2159 627.148 88.375 623.284 90.6477C619.443 92.8977 614.875 94.0227 609.58 94.0227ZM609.648 82.7727C612.057 82.7727 614.068 82.0909 615.682 80.7273C617.295 79.3409 618.511 77.4545 619.33 75.0682C620.17 72.6818 620.591 69.9659 620.591 66.9205C620.591 63.875 620.17 61.1591 619.33 58.7727C618.511 56.3864 617.295 54.5 615.682 53.1136C614.068 51.7273 612.057 51.0341 609.648 51.0341C607.216 51.0341 605.17 51.7273 603.511 53.1136C601.875 54.5 600.636 56.3864 599.795 58.7727C598.977 61.1591 598.568 63.875 598.568 66.9205C598.568 69.9659 598.977 72.6818 599.795 75.0682C600.636 77.4545 601.875 79.3409 603.511 80.7273C605.17 82.0909 607.216 82.7727 609.648 82.7727ZM659.318 23.1818V93H644.795V23.1818H659.318ZM694.611 94.0227C689.315 94.0227 684.736 92.8977 680.872 90.6477C677.031 88.375 674.065 85.2159 671.974 81.1705C669.884 77.1023 668.838 72.3864 668.838 67.0227C668.838 61.6136 669.884 56.8864 671.974 52.8409C674.065 48.7727 677.031 45.6136 680.872 43.3636C684.736 41.0909 689.315 39.9545 694.611 39.9545C699.906 39.9545 704.474 41.0909 708.315 43.3636C712.179 45.6136 715.156 48.7727 717.247 52.8409C719.338 56.8864 720.384 61.6136 720.384 67.0227C720.384 72.3864 719.338 77.1023 717.247 81.1705C715.156 85.2159 712.179 88.375 708.315 90.6477C704.474 92.8977 699.906 94.0227 694.611 94.0227ZM694.679 82.7727C697.088 82.7727 699.099 82.0909 700.713 80.7273C702.327 79.3409 703.543 77.4545 704.361 75.0682C705.202 72.6818 705.622 69.9659 705.622 66.9205C705.622 63.875 705.202 61.1591 704.361 58.7727C703.543 56.3864 702.327 54.5 700.713 53.1136C699.099 51.7273 697.088 51.0341 694.679 51.0341C692.247 51.0341 690.202 51.7273 688.543 53.1136C686.906 54.5 685.668 56.3864 684.827 58.7727C684.009 61.1591 683.599 63.875 683.599 66.9205C683.599 69.9659 684.009 72.6818 684.827 75.0682C685.668 77.4545 686.906 79.3409 688.543 80.7273C690.202 82.0909 692.247 82.7727 694.679 82.7727ZM753.418 113.727C748.713 113.727 744.679 113.08 741.315 111.784C737.974 110.511 735.315 108.773 733.338 106.568C731.361 104.364 730.077 101.886 729.486 99.1364L742.918 97.3295C743.327 98.375 743.974 99.3523 744.861 100.261C745.747 101.17 746.918 101.898 748.372 102.443C749.849 103.011 751.645 103.295 753.759 103.295C756.918 103.295 759.52 102.523 761.565 100.977C763.634 99.4545 764.668 96.8977 764.668 93.3068V83.7273H764.054C763.418 85.1818 762.463 86.5568 761.19 87.8523C759.918 89.1477 758.281 90.2045 756.281 91.0227C754.281 91.8409 751.895 92.25 749.122 92.25C745.19 92.25 741.611 91.3409 738.384 89.5227C735.179 87.6818 732.622 84.875 730.713 81.1023C728.827 77.3068 727.884 72.5114 727.884 66.7159C727.884 60.7841 728.849 55.8295 730.781 51.8523C732.713 47.875 735.281 44.8977 738.486 42.9205C741.713 40.9432 745.247 39.9545 749.088 39.9545C752.02 39.9545 754.474 40.4545 756.452 41.4545C758.429 42.4318 760.02 43.6591 761.224 45.1364C762.452 46.5909 763.395 48.0227 764.054 49.4318H764.599V40.6364H779.02V93.5114C779.02 97.9659 777.929 101.693 775.747 104.693C773.565 107.693 770.543 109.943 766.679 111.443C762.838 112.966 758.418 113.727 753.418 113.727ZM753.724 81.3409C756.065 81.3409 758.043 80.7614 759.656 79.6023C761.293 78.4205 762.543 76.7386 763.406 74.5568C764.293 72.3523 764.736 69.7159 764.736 66.6477C764.736 63.5795 764.304 60.9205 763.44 58.6705C762.577 56.3977 761.327 54.6364 759.69 53.3864C758.054 52.1364 756.065 51.5114 753.724 51.5114C751.338 51.5114 749.327 52.1591 747.69 53.4545C746.054 54.7273 744.815 56.5 743.974 58.7727C743.134 61.0455 742.713 63.6705 742.713 66.6477C742.713 69.6705 743.134 72.2841 743.974 74.4886C744.838 76.6705 746.077 78.3636 747.69 79.5682C749.327 80.75 751.338 81.3409 753.724 81.3409ZM790.577 93V40.6364H805.099V93H790.577ZM797.872 33.8864C795.713 33.8864 793.861 33.1705 792.315 31.7386C790.793 30.2841 790.031 28.5455 790.031 26.5227C790.031 24.5227 790.793 22.8068 792.315 21.375C793.861 19.9205 795.713 19.1932 797.872 19.1932C800.031 19.1932 801.872 19.9205 803.395 21.375C804.94 22.8068 805.713 24.5227 805.713 26.5227C805.713 28.5455 804.94 30.2841 803.395 31.7386C801.872 33.1705 800.031 33.8864 797.872 33.8864ZM840.597 94.0227C835.21 94.0227 830.574 92.9318 826.688 90.75C822.824 88.5455 819.847 85.4318 817.756 81.4091C815.665 77.3636 814.619 72.5795 814.619 67.0568C814.619 61.6705 815.665 56.9432 817.756 52.875C819.847 48.8068 822.79 45.6364 826.585 43.3636C830.403 41.0909 834.881 39.9545 840.017 39.9545C843.472 39.9545 846.688 40.5114 849.665 41.625C852.665 42.7159 855.278 44.3636 857.506 46.5682C859.756 48.7727 861.506 51.5455 862.756 54.8864C864.006 58.2045 864.631 62.0909 864.631 66.5455V70.5341H820.415V61.5341H850.96C850.96 59.4432 850.506 57.5909 849.597 55.9773C848.688 54.3636 847.426 53.1023 845.812 52.1932C844.222 51.2614 842.369 50.7955 840.256 50.7955C838.051 50.7955 836.097 51.3068 834.392 52.3295C832.71 53.3295 831.392 54.6818 830.438 56.3864C829.483 58.0682 828.994 59.9432 828.972 62.0114V70.5682C828.972 73.1591 829.449 75.3977 830.403 77.2841C831.381 79.1705 832.756 80.625 834.528 81.6477C836.301 82.6705 838.403 83.1818 840.835 83.1818C842.449 83.1818 843.926 82.9545 845.267 82.5C846.608 82.0455 847.756 81.3636 848.71 80.4545C849.665 79.5455 850.392 78.4318 850.892 77.1136L864.324 78C863.642 81.2273 862.244 84.0455 860.131 86.4545C858.04 88.8409 855.335 90.7045 852.017 92.0455C848.722 93.3636 844.915 94.0227 840.597 94.0227ZM917.676 55.5682L904.381 56.3864C904.153 55.25 903.665 54.2273 902.915 53.3182C902.165 52.3864 901.176 51.6477 899.949 51.1023C898.744 50.5341 897.301 50.25 895.619 50.25C893.369 50.25 891.472 50.7273 889.926 51.6818C888.381 52.6136 887.608 53.8636 887.608 55.4318C887.608 56.6818 888.108 57.7386 889.108 58.6023C890.108 59.4659 891.824 60.1591 894.256 60.6818L903.733 62.5909C908.824 63.6364 912.619 65.3182 915.119 67.6364C917.619 69.9545 918.869 73 918.869 76.7727C918.869 80.2045 917.858 83.2159 915.835 85.8068C913.835 88.3977 911.085 90.4205 907.585 91.875C904.108 93.3068 900.097 94.0227 895.551 94.0227C888.619 94.0227 883.097 92.5795 878.983 89.6932C874.892 86.7841 872.494 82.8295 871.79 77.8295L886.074 77.0795C886.506 79.1932 887.551 80.8068 889.21 81.9205C890.869 83.0114 892.994 83.5568 895.585 83.5568C898.131 83.5568 900.176 83.0682 901.722 82.0909C903.29 81.0909 904.085 79.8068 904.108 78.2386C904.085 76.9205 903.528 75.8409 902.438 75C901.347 74.1364 899.665 73.4773 897.392 73.0227L888.324 71.2159C883.21 70.1932 879.403 68.4205 876.903 65.8977C874.426 63.375 873.188 60.1591 873.188 56.25C873.188 52.8864 874.097 49.9886 875.915 47.5568C877.756 45.125 880.335 43.25 883.653 41.9318C886.994 40.6136 890.903 39.9545 895.381 39.9545C901.994 39.9545 907.199 41.3523 910.994 44.1477C914.813 46.9432 917.04 50.75 917.676 55.5682Z" fill="#120E0E"/>
<g clip-path="url(#clip0_1_46)">
<mask id="mask0_1_46" style="mask-type:luminance" maskUnits="userSpaceOnUse" x="0" y="13" width="93" height="93">
<path d="M46.5 13C20.8187 13 0 33.8187 0 59.5C0 85.1813 20.8187 106 46.5 106C72.1813 106 93 85.1813 93 59.5C93 33.8187 72.1813 13 46.5 13Z" fill="white"/>
</mask>
<g mask="url(#mask0_1_46)">
<path d="M102.3 3.7H-9.29999V115.3H102.3V3.7Z" fill="#545454"/>
</g>
<path d="M10.8304 68.7656C9.2737 68.7656 7.90193 68.4421 6.71512 67.795C5.52783 67.1479 4.59882 66.1754 3.92807 64.8774C3.25827 63.5785 2.92337 61.9763 2.92337 60.0715C2.92337 58.168 3.25827 56.5673 3.92807 55.2693C4.59882 53.9704 5.52783 52.9969 6.71512 52.3499C7.90193 51.7018 9.2737 51.3773 10.8304 51.3773C12.4562 51.3773 13.8374 51.6961 14.9741 52.3328C16.1117 52.9686 16.9234 53.9373 17.4092 55.2391L14.9703 56.73L14.6808 56.7187C14.3185 55.8408 13.8275 55.2116 13.2069 54.8304C12.5863 54.4482 11.794 54.2571 10.8304 54.2571C9.42743 54.2571 8.33333 54.7216 7.54764 55.6497C6.76147 56.5782 6.36887 58.0521 6.36887 60.0715C6.36887 62.0837 6.76147 63.5543 7.54764 64.4838C8.33333 65.4124 9.42743 65.8764 10.8304 65.8764C13.0276 65.8764 14.3729 64.8088 14.8662 62.6731H15.1538L17.6173 63.9559C17.1543 65.5595 16.3638 66.7619 15.2466 67.5641C14.1288 68.3654 12.6568 68.7656 10.8304 68.7656Z" fill="white"/>
<path d="M23.1424 68.7656C22.3259 68.7656 21.6173 68.6152 21.0157 68.3153C20.4149 68.0154 19.9528 67.5746 19.6288 66.9927C19.3043 66.41 19.1425 65.7099 19.1425 64.8925C19.1425 64.1385 19.3043 63.5051 19.6288 62.9929C19.9528 62.4796 20.4537 62.0591 21.1311 61.7308C21.8094 61.403 22.6963 61.1509 23.7914 60.974C24.5543 60.8505 25.1338 60.7157 25.5302 60.5691C25.9275 60.4229 26.1953 60.2578 26.3343 60.0734C26.4729 59.8879 26.5424 59.6528 26.5424 59.3676C26.5424 58.9589 26.3996 58.6467 26.1148 58.431C25.8296 58.2153 25.3552 58.1075 24.692 58.1075C23.9829 58.1075 23.3089 58.2659 22.6693 58.5824C22.0298 58.8979 21.4745 59.3137 21.0043 59.8293H20.7735L19.432 57.8066C20.0791 57.0891 20.8685 56.5304 21.8009 56.1302C22.7341 55.7291 23.7521 55.5286 24.8547 55.5286C26.5424 55.5286 27.7638 55.8871 28.5197 56.6033C29.2751 57.3199 29.653 58.3374 29.653 59.6552V65.1934C29.653 65.7638 29.9033 66.0486 30.4042 66.0486C30.5972 66.0486 30.7855 66.0141 30.9699 65.9445L31.1327 65.9918L31.3635 68.2226C31.1856 68.339 30.9382 68.4336 30.6218 68.5064C30.3063 68.5793 29.96 68.6161 29.583 68.6161C28.8196 68.6161 28.2245 68.47 27.7969 68.1772C27.3693 67.8834 27.0628 67.4251 26.8773 66.8016L26.6352 66.777C26.0108 68.1029 24.8462 68.7656 23.1424 68.7656ZM24.1603 66.3721C24.9006 66.3721 25.4923 66.1238 25.9351 65.6266C26.3778 65.13 26.5992 64.4384 26.5992 63.5529V62.2568L26.3797 62.2114C26.1877 62.3656 25.9356 62.4948 25.6229 62.5993C25.3112 62.7029 24.8623 62.8046 24.2757 62.9039C23.5818 63.0203 23.0828 63.219 22.7791 63.4999C22.4749 63.7814 22.3231 64.1801 22.3231 64.6957C22.3231 65.2435 22.4844 65.6598 22.8075 65.9445C23.1315 66.2298 23.5823 66.3721 24.1603 66.3721Z" fill="white"/>
<path d="M36.9134 68.7656C35.7639 68.7656 34.887 68.4563 34.2815 67.8366C33.677 67.216 33.3752 66.2733 33.3752 65.0079V50.6489H36.5766V64.8812C36.5766 65.6598 36.9006 66.0486 37.5491 66.0486C37.7331 66.0486 37.9294 66.0183 38.1376 65.9578L38.3003 66.0032L38.5898 68.4648C38.4119 68.558 38.1764 68.6313 37.884 68.6843C37.5912 68.7382 37.2677 68.7656 36.9134 68.7656Z" fill="white"/>
<path d="M47.7454 65.4828L48.5779 67.8536C48.2307 68.1389 47.7951 68.3621 47.2705 68.5234C46.7468 68.6847 46.1532 68.7656 45.49 68.7656C44.1112 68.7656 43.0629 68.3905 42.3454 67.6398C41.6287 66.8882 41.2707 65.795 41.2707 64.3608V58.3024H39.3294V55.7594H41.2707V53.2732L44.474 52.7529V55.7594H48.0916V58.3024H44.474V64.13C44.474 64.762 44.6045 65.2227 44.8656 65.5112C45.1277 65.8002 45.5094 65.9445 46.0103 65.9445C46.5818 65.9445 47.0794 65.7908 47.5032 65.4828H47.7454Z" fill="white"/>
<path d="M61.4564 62.8699H53.2598C53.3516 63.9801 53.6676 64.7875 54.2078 65.2917C54.7475 65.7965 55.4835 66.0486 56.4158 66.0486C57.1485 66.0486 57.7422 65.9124 58.1963 65.6399C58.6513 65.3665 59.0179 64.9521 59.2956 64.3968H59.5378L61.6645 65.761C61.2482 66.6541 60.6201 67.3783 59.78 67.9331C58.9399 68.4884 57.8183 68.7656 56.4158 68.7656C55.0975 68.7656 53.9585 68.5154 52.9987 68.0145C52.0399 67.514 51.3001 66.7685 50.7793 65.778C50.2594 64.788 49.9998 63.5794 49.9998 62.1528C49.9998 60.7034 50.2732 59.4821 50.8209 58.4878C51.3682 57.494 52.108 56.7523 53.0403 56.2627C53.9722 55.7736 55.0204 55.5286 56.185 55.5286C57.9886 55.5286 59.3699 56.0068 60.3287 56.9628C61.2884 57.9178 61.7686 59.3203 61.7686 61.1708C61.7686 61.8406 61.7458 62.3609 61.7004 62.7318L61.4564 62.8699ZM58.7053 60.7999C58.675 59.8288 58.4498 59.1216 58.0298 58.6789C57.6097 58.2361 56.9948 58.0148 56.185 58.0148C54.5663 58.0148 53.6146 58.9433 53.3298 60.7999H58.7053Z" fill="white"/>
<path d="M70.1508 68.7656C68.9172 68.7656 67.8259 68.5097 66.8775 67.9974C65.93 67.4856 65.1902 66.7326 64.6581 65.7383C64.1269 64.743 63.8615 63.5482 63.8615 62.1528C63.8615 60.7503 64.1269 59.5521 64.6581 58.5578C65.1902 57.564 65.9263 56.8109 66.8661 56.2986C67.807 55.7854 68.8822 55.5286 70.0922 55.5286C72.7827 55.5286 74.5055 56.5039 75.2614 58.4537L73.0646 60.0261H72.8206C72.5594 59.4244 72.2189 58.9774 71.7988 58.6846C71.3788 58.3922 70.8097 58.2456 70.0922 58.2456C69.1674 58.2456 68.4465 58.5654 67.9295 59.2049C67.4134 59.8444 67.1556 60.8274 67.1556 62.1528C67.1556 63.4635 67.4172 64.4403 67.9409 65.0836C68.4654 65.7269 69.2019 66.0486 70.1508 66.0486C70.8443 66.0486 71.4322 65.8622 71.9142 65.4885C72.3958 65.1153 72.7411 64.578 72.9492 63.8765L73.1914 63.8519L75.4695 65.1006C75.145 66.1806 74.5452 67.0618 73.6701 67.7439C72.796 68.425 71.6229 68.7656 70.1508 68.7656Z" fill="white"/>
<path d="M77.7009 68.5234V50.6489H80.9023V57.4358L81.1445 57.4831C81.5693 56.8587 82.0896 56.3772 82.7055 56.0375C83.3223 55.6984 84.0664 55.5286 84.9382 55.5286C87.7508 55.5286 89.1575 57.1245 89.1575 60.3156V68.5234H85.9542V60.7205C85.9542 59.8492 85.7806 59.2172 85.4339 58.8246C85.0867 58.431 84.5475 58.2343 83.8162 58.2343C82.9217 58.2343 82.2121 58.5332 81.6876 59.1311C81.1639 59.7281 80.9023 60.658 80.9023 61.9219V68.5234H77.7009Z" fill="white"/>
</g>
<defs>
<clipPath id="clip0_1_46">
<rect width="93" height="93" fill="white" transform="translate(0 13)"/>
</clipPath>
</defs>
</svg>
