<svg width="735" height="198" viewBox="0 0 735 198" fill="none" xmlns="http://www.w3.org/2000/svg">
<path d="M316.227 75.5H296.318C295.955 72.9242 295.212 70.6364 294.091 68.6364C292.97 66.6061 291.53 64.8788 289.773 63.4545C288.015 62.0303 285.985 60.9394 283.682 60.1818C281.409 59.4242 278.939 59.0455 276.273 59.0455C271.455 59.0455 267.258 60.2424 263.682 62.6364C260.106 65 257.333 68.4545 255.364 73C253.394 77.5151 252.409 83 252.409 89.4545C252.409 96.0909 253.394 101.667 255.364 106.182C257.364 110.697 260.152 114.106 263.727 116.409C267.303 118.712 271.439 119.864 276.136 119.864C278.773 119.864 281.212 119.515 283.455 118.818C285.727 118.121 287.742 117.106 289.5 115.773C291.258 114.409 292.712 112.758 293.864 110.818C295.045 108.879 295.864 106.667 296.318 104.182L316.227 104.273C315.712 108.545 314.424 112.667 312.364 116.636C310.333 120.576 307.591 124.106 304.136 127.227C300.712 130.318 296.621 132.773 291.864 134.591C287.136 136.379 281.788 137.273 275.818 137.273C267.515 137.273 260.091 135.394 253.545 131.636C247.03 127.879 241.879 122.439 238.091 115.318C234.333 108.197 232.455 99.5758 232.455 89.4545C232.455 79.303 234.364 70.6667 238.182 63.5455C242 56.4242 247.182 51 253.727 47.2727C260.273 43.5151 267.636 41.6364 275.818 41.6364C281.212 41.6364 286.212 42.3939 290.818 43.9091C295.455 45.4242 299.561 47.6364 303.136 50.5454C306.712 53.4242 309.621 56.9545 311.864 61.1364C314.136 65.3182 315.591 70.1061 316.227 75.5ZM349.886 137.318C345.432 137.318 341.462 136.545 337.977 135C334.492 133.424 331.735 131.106 329.705 128.045C327.705 124.955 326.705 121.106 326.705 116.5C326.705 112.621 327.417 109.364 328.841 106.727C330.265 104.091 332.205 101.97 334.659 100.364C337.114 98.7576 339.902 97.5455 343.023 96.7273C346.174 95.9091 349.477 95.3333 352.932 95C356.992 94.5758 360.265 94.1818 362.75 93.8182C365.235 93.4242 367.038 92.8485 368.159 92.0909C369.28 91.3333 369.841 90.2121 369.841 88.7273V88.4545C369.841 85.5758 368.932 83.3485 367.114 81.7727C365.326 80.197 362.78 79.4091 359.477 79.4091C355.992 79.4091 353.22 80.1818 351.159 81.7273C349.098 83.2424 347.735 85.1515 347.068 87.4545L329.159 86C330.068 81.7576 331.856 78.0909 334.523 75C337.189 71.8788 340.629 69.4848 344.841 67.8182C349.083 66.1212 353.992 65.2727 359.568 65.2727C363.447 65.2727 367.159 65.7273 370.705 66.6364C374.28 67.5455 377.447 68.9545 380.205 70.8636C382.992 72.7727 385.189 75.2273 386.795 78.2273C388.402 81.197 389.205 84.7576 389.205 88.9091V136H370.841V126.318H370.295C369.174 128.5 367.674 130.424 365.795 132.091C363.917 133.727 361.659 135.015 359.023 135.955C356.386 136.864 353.341 137.318 349.886 137.318ZM355.432 123.955C358.28 123.955 360.795 123.394 362.977 122.273C365.159 121.121 366.871 119.576 368.114 117.636C369.356 115.697 369.977 113.5 369.977 111.045V103.636C369.371 104.03 368.538 104.394 367.477 104.727C366.447 105.03 365.28 105.318 363.977 105.591C362.674 105.833 361.371 106.061 360.068 106.273C358.765 106.455 357.583 106.621 356.523 106.773C354.25 107.106 352.265 107.636 350.568 108.364C348.871 109.091 347.553 110.076 346.614 111.318C345.674 112.53 345.205 114.045 345.205 115.864C345.205 118.5 346.159 120.515 348.068 121.909C350.008 123.273 352.462 123.955 355.432 123.955ZM423.591 42.9091V136H404.227V42.9091H423.591ZM476.239 66.1818V80.7273H434.193V66.1818H476.239ZM443.739 49.4545H463.102V114.545C463.102 116.333 463.375 117.727 463.92 118.727C464.466 119.697 465.223 120.379 466.193 120.773C467.193 121.167 468.345 121.364 469.648 121.364C470.557 121.364 471.466 121.288 472.375 121.136C473.284 120.955 473.981 120.818 474.466 120.727L477.511 135.136C476.542 135.439 475.178 135.788 473.42 136.182C471.663 136.606 469.527 136.864 467.011 136.955C462.345 137.136 458.254 136.515 454.739 135.091C451.254 133.667 448.542 131.455 446.602 128.455C444.663 125.455 443.708 121.667 443.739 117.091V49.4545ZM519.92 137.364C512.739 137.364 506.557 135.909 501.375 133C496.223 130.061 492.254 125.909 489.466 120.545C486.678 115.152 485.284 108.773 485.284 101.409C485.284 94.2273 486.678 87.9242 489.466 82.5C492.254 77.0758 496.178 72.8485 501.239 69.8182C506.33 66.7879 512.299 65.2727 519.148 65.2727C523.754 65.2727 528.042 66.0152 532.011 67.5C536.011 68.9545 539.496 71.1515 542.466 74.0909C545.466 77.0303 547.799 80.7273 549.466 85.1818C551.133 89.6061 551.966 94.7879 551.966 100.727V106.045H493.011V94.0455H533.739C533.739 91.2576 533.133 88.7879 531.92 86.6364C530.708 84.4848 529.027 82.803 526.875 81.5909C524.754 80.3485 522.284 79.7273 519.466 79.7273C516.527 79.7273 513.92 80.4091 511.648 81.7727C509.405 83.1061 507.648 84.9091 506.375 87.1818C505.102 89.4242 504.451 91.9242 504.42 94.6818V106.091C504.42 109.545 505.057 112.53 506.33 115.045C507.633 117.561 509.466 119.5 511.83 120.864C514.193 122.227 516.996 122.909 520.239 122.909C522.39 122.909 524.36 122.606 526.148 122C527.936 121.394 529.466 120.485 530.739 119.273C532.011 118.061 532.981 116.576 533.648 114.818L551.557 116C550.648 120.303 548.784 124.061 545.966 127.273C543.178 130.455 539.572 132.939 535.148 134.727C530.754 136.485 525.678 137.364 519.92 137.364ZM596.148 137.364C588.996 137.364 582.845 135.848 577.693 132.818C572.572 129.758 568.633 125.515 565.875 120.091C563.148 114.667 561.784 108.424 561.784 101.364C561.784 94.2121 563.163 87.9394 565.92 82.5455C568.708 77.1212 572.663 72.8939 577.784 69.8636C582.905 66.803 588.996 65.2727 596.057 65.2727C602.148 65.2727 607.481 66.3788 612.057 68.5909C616.633 70.803 620.254 73.9091 622.92 77.9091C625.587 81.9091 627.057 86.6061 627.33 92H609.057C608.542 88.5151 607.178 85.7121 604.966 83.5909C602.784 81.4394 599.92 80.3636 596.375 80.3636C593.375 80.3636 590.754 81.1818 588.511 82.8182C586.299 84.4242 584.572 86.7727 583.33 89.8636C582.087 92.9545 581.466 96.697 581.466 101.091C581.466 105.545 582.072 109.333 583.284 112.455C584.527 115.576 586.269 117.955 588.511 119.591C590.754 121.227 593.375 122.045 596.375 122.045C598.587 122.045 600.572 121.591 602.33 120.682C604.117 119.773 605.587 118.455 606.739 116.727C607.92 114.97 608.693 112.864 609.057 110.409H627.33C627.027 115.742 625.572 120.439 622.966 124.5C620.39 128.53 616.83 131.682 612.284 133.955C607.739 136.227 602.36 137.364 596.148 137.364ZM659.091 95.6364V136H639.727V42.9091H658.545V78.5H659.364C660.939 74.3788 663.485 71.1515 667 68.8182C670.515 66.4545 674.924 65.2727 680.227 65.2727C685.076 65.2727 689.303 66.3333 692.909 68.4545C696.545 70.5455 699.364 73.5606 701.364 77.5C703.394 81.4091 704.394 86.0909 704.364 91.5455V136H685V95C685.03 90.697 683.939 87.3485 681.727 84.9545C679.545 82.5606 676.485 81.3636 672.545 81.3636C669.909 81.3636 667.576 81.9242 665.545 83.0455C663.545 84.1667 661.97 85.803 660.818 87.9545C659.697 90.0758 659.121 92.6364 659.091 95.6364Z" fill="#120E0E"/>
<mask id="mask0_3_53" style="mask-type:luminance" maskUnits="userSpaceOnUse" x="0" y="0" width="199" height="198">
<path d="M99.5 0C44.5475 0 0 44.3236 0 99C0 153.676 44.5475 198 99.5 198C154.453 198 199 153.676 199 99C199 44.3236 154.453 0 99.5 0Z" fill="white"/>
</mask>
<g mask="url(#mask0_3_53)">
<path d="M218.9 -19.8H-19.9V217.8H218.9V-19.8Z" fill="#545454"/>
<path d="M23.1747 118.727C19.8437 118.727 16.9084 118.038 14.3689 116.66C11.8284 115.283 9.84046 113.212 8.40521 110.449C6.97198 107.683 6.25537 104.272 6.25537 100.217C6.25537 96.1642 6.97198 92.7563 8.40521 89.9928C9.84046 87.2274 11.8284 85.1548 14.3689 83.7771C16.9084 82.3974 19.8437 81.7066 23.1747 81.7066C26.6536 81.7066 29.6091 82.3853 32.0413 83.7409C34.4756 85.0944 36.2125 87.1569 37.252 89.9284L32.0332 93.1027L31.4138 93.0785C30.6385 91.2094 29.5878 89.87 28.2599 89.0583C26.9319 88.2445 25.2365 87.8377 23.1747 87.8377C20.1727 87.8377 17.8315 88.8266 16.1503 90.8025C14.4681 92.7794 13.628 95.9175 13.628 100.217C13.628 104.501 14.4681 107.632 16.1503 109.611C17.8315 111.588 20.1727 112.576 23.1747 112.576C27.8763 112.576 30.7549 110.303 31.8105 105.756H32.4259L37.6973 108.487C36.7064 111.901 35.0151 114.461 32.6243 116.169C30.2326 117.875 27.0827 118.727 23.1747 118.727Z" fill="white"/>
<path d="M49.5197 118.727C47.7727 118.727 46.2565 118.407 44.969 117.768C43.6835 117.13 42.6947 116.191 42.0013 114.952C41.307 113.712 40.9608 112.221 40.9608 110.481C40.9608 108.876 41.307 107.527 42.0013 106.436C42.6947 105.344 43.7665 104.448 45.216 103.75C46.6674 103.052 48.5652 102.515 50.9084 102.138C52.541 101.875 53.7809 101.588 54.6291 101.276C55.4793 100.965 56.0522 100.613 56.3498 100.221C56.6464 99.826 56.7951 99.3254 56.7951 98.7182C56.7951 97.8481 56.4895 97.1834 55.8801 96.7242C55.2698 96.2649 54.2546 96.0353 52.8356 96.0353C51.3183 96.0353 49.876 96.3727 48.5075 97.0464C47.1391 97.7181 45.9508 98.6034 44.9447 99.7011H44.4508L41.5803 95.3948C42.9649 93.8671 44.6542 92.6777 46.6492 91.8257C48.6462 90.9717 50.8244 90.5447 53.1837 90.5447C56.7951 90.5447 59.4086 91.3081 61.026 92.8328C62.6424 94.3585 63.4512 96.5247 63.4512 99.3305V111.121C63.4512 112.336 63.9866 112.942 65.0585 112.942C65.4714 112.942 65.8743 112.869 66.269 112.721L66.6172 112.821L67.1111 117.571C66.7306 117.818 66.2012 118.02 65.5241 118.175C64.849 118.33 64.108 118.409 63.3014 118.409C61.6677 118.409 60.3944 118.097 59.4794 117.474C58.5644 116.849 57.9085 115.873 57.5118 114.545L56.9935 114.493C55.6575 117.316 53.1655 118.727 49.5197 118.727ZM51.6979 113.631C53.2819 113.631 54.5481 113.102 55.4955 112.044C56.4429 110.986 56.9166 109.514 56.9166 107.629V104.869L56.447 104.773C56.036 105.101 55.4965 105.376 54.8275 105.599C54.1605 105.819 53.1999 106.036 51.9448 106.247C50.46 106.495 49.3922 106.918 48.7424 107.516C48.0915 108.115 47.7666 108.964 47.7666 110.062C47.7666 111.228 48.1118 112.114 48.8031 112.721C49.4964 113.328 50.461 113.631 51.6979 113.631Z" fill="white"/>
<path d="M78.9867 118.727C76.5272 118.727 74.6506 118.068 73.355 116.749C72.0615 115.428 71.4157 113.421 71.4157 110.727V80.1557H78.2661V110.457C78.2661 112.114 78.9594 112.942 80.3471 112.942C80.7408 112.942 81.1608 112.878 81.6062 112.749L81.9544 112.845L82.5738 118.086C82.1933 118.285 81.6892 118.441 81.0637 118.554C80.4371 118.668 79.7448 118.727 78.9867 118.727Z" fill="white"/>
<path d="M102.165 111.738L103.946 116.785C103.203 117.392 102.271 117.868 101.149 118.211C100.028 118.555 98.7579 118.727 97.3389 118.727C94.3884 118.727 92.1455 117.928 90.61 116.33C89.0766 114.73 88.3104 112.402 88.3104 109.349V96.4502H84.1564V91.0362H88.3104V85.743L95.1648 84.6352V91.0362H102.906V96.4502H95.1648V108.857C95.1648 110.203 95.4441 111.184 96.0028 111.798C96.5636 112.413 97.3804 112.721 98.4523 112.721C99.675 112.721 100.74 112.393 101.647 111.738H102.165Z" fill="white"/>
<path d="M131.503 106.175H113.965C114.161 108.538 114.837 110.257 115.993 111.331C117.148 112.405 118.723 112.942 120.718 112.942C122.286 112.942 123.556 112.652 124.528 112.072C125.501 111.49 126.286 110.608 126.88 109.425H127.398L131.949 112.33C131.058 114.231 129.714 115.773 127.916 116.954C126.119 118.137 123.719 118.727 120.718 118.727C117.897 118.727 115.46 118.194 113.406 117.128C111.354 116.062 109.771 114.475 108.657 112.366C107.544 110.258 106.989 107.685 106.989 104.648C106.989 101.562 107.574 98.9619 108.746 96.845C109.917 94.7291 111.5 93.15 113.495 92.1077C115.489 91.0664 117.732 90.5447 120.224 90.5447C124.083 90.5447 127.039 91.5629 129.09 93.5982C131.144 95.6315 132.171 98.6175 132.171 102.557C132.171 103.983 132.123 105.091 132.026 105.881L131.503 106.175ZM125.617 101.768C125.552 99.7001 125.07 98.1945 124.171 97.2519C123.272 96.3092 121.957 95.8379 120.224 95.8379C116.76 95.8379 114.724 97.8148 114.114 101.768H125.617Z" fill="white"/>
<path d="M150.108 118.727C147.468 118.727 145.133 118.182 143.104 117.091C141.076 116.002 139.493 114.398 138.354 112.282C137.218 110.163 136.65 107.619 136.65 104.648C136.65 101.662 137.218 99.1109 138.354 96.994C139.493 94.8782 141.068 93.2749 143.079 92.1842C145.092 91.0916 147.393 90.5447 149.982 90.5447C155.739 90.5447 159.426 92.6213 161.043 96.7725L156.343 100.12H155.82C155.262 98.839 154.533 97.8873 153.634 97.2639C152.735 96.6416 151.518 96.3294 149.982 96.3294C148.003 96.3294 146.461 97.0102 145.355 98.3717C144.25 99.7333 143.699 101.826 143.699 104.648C143.699 107.438 144.258 109.518 145.379 110.888C146.501 112.257 148.077 112.942 150.108 112.942C151.592 112.942 152.85 112.545 153.881 111.75C154.911 110.955 155.65 109.811 156.096 108.318L156.614 108.265L161.488 110.924C160.794 113.223 159.511 115.099 157.638 116.552C155.768 118.002 153.258 118.727 150.108 118.727Z" fill="white"/>
<path d="M166.263 118.211V80.1557H173.114V94.6053L173.632 94.706C174.541 93.3766 175.654 92.3514 176.972 91.6283C178.292 90.9063 179.884 90.5447 181.749 90.5447C187.768 90.5447 190.778 93.9426 190.778 100.736V118.211H183.924V101.598C183.924 99.7434 183.552 98.3979 182.81 97.562C182.067 96.7242 180.913 96.3052 179.349 96.3052C177.435 96.3052 175.916 96.9417 174.794 98.2146C173.673 99.4856 173.114 101.465 173.114 104.156V118.211H166.263Z" fill="white"/>
</g>
</svg>
