<svg xmlns="http://www.w3.org/2000/svg" xmlns:xlink="http://www.w3.org/1999/xlink" width="1000" zoomAndPan="magnify" viewBox="0 0 750 112.499997" height="150" preserveAspectRatio="xMidYMid meet" version="1.0"><defs><g/><clipPath id="1c5869c742"><path d="M 7.144531 11.199219 L 97.492188 11.199219 L 97.492188 101.546875 L 7.144531 101.546875 Z M 7.144531 11.199219 " clip-rule="nonzero"/></clipPath><clipPath id="507416af02"><path d="M 52.320312 11.199219 C 27.371094 11.199219 7.144531 31.425781 7.144531 56.375 C 7.144531 81.324219 27.371094 101.546875 52.320312 101.546875 C 77.269531 101.546875 97.492188 81.324219 97.492188 56.375 C 97.492188 31.425781 77.269531 11.199219 52.320312 11.199219 " clip-rule="nonzero"/></clipPath></defs><g clip-path="url(#1c5869c742)"><g clip-path="url(#507416af02)"><path fill="#545454" d="M -1.890625 2.164062 L 106.527344 2.164062 L 106.527344 110.582031 L -1.890625 110.582031 Z M -1.890625 2.164062 " fill-opacity="1" fill-rule="nonzero"/></g></g><path fill="#ffffff" d="M 17.667969 65.375 C 16.15625 65.375 14.820312 65.0625 13.667969 64.433594 C 12.515625 63.804688 11.613281 62.859375 10.960938 61.597656 C 10.3125 60.335938 9.984375 58.78125 9.984375 56.929688 C 9.984375 55.082031 10.3125 53.523438 10.960938 52.265625 C 11.613281 51.003906 12.515625 50.058594 13.667969 49.429688 C 14.820312 48.796875 16.15625 48.484375 17.667969 48.484375 C 19.246094 48.484375 20.589844 48.792969 21.691406 49.410156 C 22.796875 50.027344 23.585938 50.96875 24.058594 52.234375 L 21.6875 53.683594 L 21.40625 53.671875 C 21.054688 52.820312 20.578125 52.207031 19.976562 51.839844 C 19.371094 51.464844 18.601562 51.28125 17.667969 51.28125 C 16.304688 51.28125 15.242188 51.730469 14.476562 52.632812 C 13.714844 53.535156 13.332031 54.96875 13.332031 56.929688 C 13.332031 58.882812 13.714844 60.3125 14.476562 61.214844 C 15.242188 62.117188 16.304688 62.570312 17.667969 62.570312 C 19.800781 62.570312 21.109375 61.53125 21.589844 59.457031 L 21.867188 59.457031 L 24.261719 60.703125 C 23.8125 62.261719 23.042969 63.429688 21.957031 64.207031 C 20.871094 64.988281 19.441406 65.375 17.667969 65.375 Z M 17.667969 65.375 " fill-opacity="1" fill-rule="nonzero"/><path fill="#ffffff" d="M 29.628906 65.375 C 28.835938 65.375 28.148438 65.230469 27.5625 64.9375 C 26.976562 64.648438 26.53125 64.21875 26.214844 63.652344 C 25.898438 63.085938 25.742188 62.40625 25.742188 61.613281 C 25.742188 60.878906 25.898438 60.265625 26.214844 59.769531 C 26.53125 59.269531 27.015625 58.859375 27.675781 58.542969 C 28.332031 58.222656 29.195312 57.976562 30.257812 57.804688 C 31 57.6875 31.5625 57.554688 31.949219 57.414062 C 32.332031 57.269531 32.59375 57.109375 32.730469 56.929688 C 32.863281 56.75 32.929688 56.523438 32.929688 56.246094 C 32.929688 55.847656 32.792969 55.546875 32.515625 55.335938 C 32.238281 55.125 31.777344 55.023438 31.132812 55.023438 C 30.445312 55.023438 29.789062 55.175781 29.167969 55.484375 C 28.546875 55.789062 28.007812 56.195312 27.550781 56.695312 L 27.328125 56.695312 L 26.023438 54.730469 C 26.652344 54.03125 27.417969 53.488281 28.324219 53.101562 C 29.230469 52.710938 30.21875 52.515625 31.292969 52.515625 C 32.929688 52.515625 34.117188 52.863281 34.851562 53.558594 C 35.585938 54.257812 35.953125 55.246094 35.953125 56.523438 L 35.953125 61.90625 C 35.953125 62.460938 36.195312 62.734375 36.683594 62.734375 C 36.871094 62.734375 37.054688 62.703125 37.234375 62.636719 L 37.390625 62.679688 L 37.613281 64.847656 C 37.441406 64.960938 37.203125 65.054688 36.894531 65.125 C 36.585938 65.195312 36.25 65.230469 35.886719 65.230469 C 35.144531 65.230469 34.566406 65.089844 34.148438 64.804688 C 33.734375 64.519531 33.4375 64.074219 33.257812 63.46875 L 33.019531 63.445312 C 32.414062 64.730469 31.285156 65.375 29.628906 65.375 Z M 30.617188 63.050781 C 31.335938 63.050781 31.910156 62.808594 32.339844 62.328125 C 32.769531 61.84375 32.988281 61.171875 32.988281 60.3125 L 32.988281 59.050781 L 32.773438 59.007812 C 32.585938 59.160156 32.339844 59.285156 32.039062 59.386719 C 31.734375 59.484375 31.300781 59.585938 30.730469 59.679688 C 30.054688 59.792969 29.570312 59.988281 29.273438 60.261719 C 28.980469 60.535156 28.832031 60.921875 28.832031 61.421875 C 28.832031 61.953125 28.988281 62.359375 29.304688 62.636719 C 29.617188 62.914062 30.054688 63.050781 30.617188 63.050781 Z M 30.617188 63.050781 " fill-opacity="1" fill-rule="nonzero"/><path fill="#ffffff" d="M 43.007812 65.375 C 41.890625 65.375 41.039062 65.074219 40.449219 64.472656 C 39.863281 63.871094 39.570312 62.953125 39.570312 61.726562 L 39.570312 47.777344 L 42.679688 47.777344 L 42.679688 61.601562 C 42.679688 62.359375 42.992188 62.734375 43.625 62.734375 C 43.804688 62.734375 43.992188 62.707031 44.195312 62.648438 L 44.355469 62.691406 L 44.636719 65.082031 C 44.460938 65.175781 44.234375 65.246094 43.949219 65.296875 C 43.664062 65.347656 43.351562 65.375 43.007812 65.375 Z M 43.007812 65.375 " fill-opacity="1" fill-rule="nonzero"/><path fill="#ffffff" d="M 53.53125 62.1875 L 54.339844 64.488281 C 54 64.765625 53.578125 64.984375 53.066406 65.140625 C 52.558594 65.296875 51.984375 65.375 51.339844 65.375 C 50 65.375 48.980469 65.011719 48.285156 64.28125 C 47.585938 63.550781 47.238281 62.488281 47.238281 61.097656 L 47.238281 55.210938 L 45.355469 55.210938 L 45.355469 52.742188 L 47.238281 52.742188 L 47.238281 50.324219 L 50.351562 49.820312 L 50.351562 52.742188 L 53.867188 52.742188 L 53.867188 55.210938 L 50.351562 55.210938 L 50.351562 60.871094 C 50.351562 61.488281 50.476562 61.933594 50.730469 62.214844 C 50.988281 62.496094 51.355469 62.636719 51.84375 62.636719 C 52.398438 62.636719 52.882812 62.484375 53.292969 62.1875 Z M 53.53125 62.1875 " fill-opacity="1" fill-rule="nonzero"/><path fill="#ffffff" d="M 66.851562 59.648438 L 58.886719 59.648438 C 58.976562 60.726562 59.28125 61.511719 59.808594 62 C 60.332031 62.492188 61.046875 62.734375 61.953125 62.734375 C 62.664062 62.734375 63.242188 62.605469 63.683594 62.339844 C 64.125 62.074219 64.480469 61.671875 64.75 61.132812 L 64.984375 61.132812 L 67.050781 62.457031 C 66.648438 63.324219 66.039062 64.027344 65.222656 64.566406 C 64.40625 65.105469 63.316406 65.375 61.953125 65.375 C 60.671875 65.375 59.566406 65.132812 58.632812 64.644531 C 57.703125 64.160156 56.984375 63.4375 56.476562 62.472656 C 55.972656 61.511719 55.71875 60.335938 55.71875 58.953125 C 55.71875 57.542969 55.984375 56.355469 56.515625 55.390625 C 57.050781 54.425781 57.769531 53.703125 58.671875 53.230469 C 59.578125 52.753906 60.597656 52.515625 61.730469 52.515625 C 63.480469 52.515625 64.824219 52.980469 65.753906 53.910156 C 66.6875 54.835938 67.152344 56.199219 67.152344 57.996094 C 67.152344 58.648438 67.132812 59.152344 67.085938 59.515625 Z M 64.175781 57.636719 C 64.148438 56.695312 63.929688 56.007812 63.519531 55.578125 C 63.113281 55.148438 62.515625 54.929688 61.730469 54.929688 C 60.15625 54.929688 59.230469 55.832031 58.953125 57.636719 Z M 64.175781 57.636719 " fill-opacity="1" fill-rule="nonzero"/><path fill="#ffffff" d="M 75.296875 65.375 C 74.097656 65.375 73.039062 65.128906 72.117188 64.628906 C 71.195312 64.132812 70.476562 63.402344 69.960938 62.433594 C 69.445312 61.46875 69.1875 60.308594 69.1875 58.953125 C 69.1875 57.589844 69.445312 56.425781 69.960938 55.460938 C 70.476562 54.492188 71.191406 53.761719 72.105469 53.265625 C 73.019531 52.765625 74.0625 52.515625 75.238281 52.515625 C 77.851562 52.515625 79.527344 53.464844 80.261719 55.359375 L 78.128906 56.886719 L 77.890625 56.886719 C 77.636719 56.300781 77.304688 55.867188 76.898438 55.582031 C 76.488281 55.296875 75.9375 55.15625 75.238281 55.15625 C 74.339844 55.15625 73.640625 55.464844 73.136719 56.085938 C 72.636719 56.710938 72.386719 57.664062 72.386719 58.953125 C 72.386719 60.226562 72.640625 61.175781 73.148438 61.800781 C 73.660156 62.421875 74.375 62.734375 75.296875 62.734375 C 75.96875 62.734375 76.542969 62.554688 77.007812 62.191406 C 77.476562 61.828125 77.8125 61.308594 78.015625 60.625 L 78.25 60.601562 L 80.464844 61.816406 C 80.148438 62.863281 79.566406 63.71875 78.714844 64.382812 C 77.867188 65.046875 76.726562 65.375 75.296875 65.375 Z M 75.296875 65.375 " fill-opacity="1" fill-rule="nonzero"/><path fill="#ffffff" d="M 82.632812 65.140625 L 82.632812 47.777344 L 85.742188 47.777344 L 85.742188 54.367188 L 85.976562 54.414062 C 86.390625 53.808594 86.894531 53.339844 87.492188 53.011719 C 88.09375 52.679688 88.816406 52.515625 89.660156 52.515625 C 92.394531 52.515625 93.761719 54.066406 93.761719 57.167969 L 93.761719 65.140625 L 90.648438 65.140625 L 90.648438 57.558594 C 90.648438 56.714844 90.480469 56.101562 90.144531 55.71875 C 89.804688 55.335938 89.28125 55.144531 88.570312 55.144531 C 87.703125 55.144531 87.015625 55.433594 86.503906 56.015625 C 85.996094 56.597656 85.742188 57.5 85.742188 58.726562 L 85.742188 65.140625 Z M 82.632812 65.140625 " fill-opacity="1" fill-rule="nonzero"/><g fill="#ffffff" fill-opacity="1"><g transform="translate(107.090508, 83.827228)"><g><path d="M 29.90625 0.78125 C 24.863281 0.78125 20.421875 -0.265625 16.578125 -2.359375 C 12.734375 -4.453125 9.722656 -7.597656 7.546875 -11.796875 C 5.378906 -16.003906 4.296875 -21.191406 4.296875 -27.359375 C 4.296875 -33.523438 5.378906 -38.707031 7.546875 -42.90625 C 9.722656 -47.113281 12.734375 -50.265625 16.578125 -52.359375 C 20.421875 -54.460938 24.863281 -55.515625 29.90625 -55.515625 C 35.164062 -55.515625 39.632812 -54.484375 43.3125 -52.421875 C 47 -50.359375 49.628906 -47.21875 51.203125 -43 L 43.3125 -38.171875 L 42.375 -38.21875 C 41.195312 -41.0625 39.601562 -43.097656 37.59375 -44.328125 C 35.582031 -45.566406 33.019531 -46.1875 29.90625 -46.1875 C 25.363281 -46.1875 21.816406 -44.679688 19.265625 -41.671875 C 16.722656 -38.671875 15.453125 -33.898438 15.453125 -27.359375 C 15.453125 -20.847656 16.722656 -16.085938 19.265625 -13.078125 C 21.816406 -10.078125 25.363281 -8.578125 29.90625 -8.578125 C 37.019531 -8.578125 41.375 -12.03125 42.96875 -18.9375 L 43.90625 -18.9375 L 51.875 -14.78125 C 50.375 -9.59375 47.816406 -5.703125 44.203125 -3.109375 C 40.585938 -0.515625 35.820312 0.78125 29.90625 0.78125 Z M 29.90625 0.78125 "/></g></g></g><g fill="#ffffff" fill-opacity="1"><g transform="translate(160.761535, 83.827228)"><g><path d="M 16.09375 0.78125 C 13.445312 0.78125 11.148438 0.296875 9.203125 -0.671875 C 7.253906 -1.648438 5.753906 -3.078125 4.703125 -4.953125 C 3.660156 -6.835938 3.140625 -9.101562 3.140625 -11.75 C 3.140625 -14.195312 3.660156 -16.25 4.703125 -17.90625 C 5.753906 -19.570312 7.378906 -20.929688 9.578125 -21.984375 C 11.773438 -23.046875 14.644531 -23.863281 18.1875 -24.4375 C 20.65625 -24.84375 22.53125 -25.28125 23.8125 -25.75 C 25.101562 -26.226562 25.972656 -26.765625 26.421875 -27.359375 C 26.867188 -27.960938 27.09375 -28.722656 27.09375 -29.640625 C 27.09375 -30.960938 26.628906 -31.972656 25.703125 -32.671875 C 24.785156 -33.367188 23.253906 -33.71875 21.109375 -33.71875 C 18.816406 -33.71875 16.632812 -33.207031 14.5625 -32.1875 C 12.488281 -31.164062 10.691406 -29.816406 9.171875 -28.140625 L 8.421875 -28.140625 L 4.078125 -34.703125 C 6.171875 -37.015625 8.726562 -38.820312 11.75 -40.125 C 14.769531 -41.425781 18.066406 -42.078125 21.640625 -42.078125 C 27.097656 -42.078125 31.050781 -40.914062 33.5 -38.59375 C 35.945312 -36.269531 37.171875 -32.972656 37.171875 -28.703125 L 37.171875 -10.78125 C 37.171875 -8.9375 37.976562 -8.015625 39.59375 -8.015625 C 40.21875 -8.015625 40.832031 -8.125 41.4375 -8.34375 L 41.953125 -8.203125 L 42.703125 -0.96875 C 42.128906 -0.59375 41.332031 -0.285156 40.3125 -0.046875 C 39.289062 0.179688 38.164062 0.296875 36.9375 0.296875 C 34.46875 0.296875 32.539062 -0.175781 31.15625 -1.125 C 29.769531 -2.070312 28.78125 -3.554688 28.1875 -5.578125 L 27.40625 -5.65625 C 25.375 -1.363281 21.601562 0.78125 16.09375 0.78125 Z M 19.390625 -6.96875 C 21.785156 -6.96875 23.695312 -7.769531 25.125 -9.375 C 26.5625 -10.988281 27.28125 -13.226562 27.28125 -16.09375 L 27.28125 -20.28125 L 26.578125 -20.4375 C 25.953125 -19.9375 25.132812 -19.515625 24.125 -19.171875 C 23.113281 -18.835938 21.660156 -18.507812 19.765625 -18.1875 C 17.515625 -17.8125 15.894531 -17.164062 14.90625 -16.25 C 13.925781 -15.34375 13.4375 -14.054688 13.4375 -12.390625 C 13.4375 -10.617188 13.957031 -9.269531 15 -8.34375 C 16.050781 -7.425781 17.515625 -6.96875 19.390625 -6.96875 Z M 19.390625 -6.96875 "/></g></g></g><g fill="#ffffff" fill-opacity="1"><g transform="translate(204.289711, 83.827228)"><g><path d="M 17.140625 0.78125 C 13.421875 0.78125 10.582031 -0.21875 8.625 -2.21875 C 6.664062 -4.226562 5.6875 -7.28125 5.6875 -11.375 L 5.6875 -57.859375 L 16.0625 -57.859375 L 16.0625 -11.796875 C 16.0625 -9.273438 17.109375 -8.015625 19.203125 -8.015625 C 19.796875 -8.015625 20.429688 -8.113281 21.109375 -8.3125 L 21.640625 -8.15625 L 22.5625 -0.1875 C 21.988281 0.113281 21.226562 0.347656 20.28125 0.515625 C 19.332031 0.691406 18.285156 0.78125 17.140625 0.78125 Z M 17.140625 0.78125 "/></g></g></g><g fill="#ffffff" fill-opacity="1"><g transform="translate(228.018743, 83.827228)"><g/></g></g><g fill="#ffffff" fill-opacity="1"><g transform="translate(246.096222, 83.827228)"><g><path d="M 43.875 -54.71875 L 43.875 -45.625 L 28.078125 -45.625 L 28.078125 0 L 17.296875 0 L 17.296875 -45.625 L 1.5 -45.625 L 1.5 -54.71875 Z M 43.875 -54.71875 "/></g></g></g><g fill="#ffffff" fill-opacity="1"><g transform="translate(291.458346, 83.827228)"><g><path d="M 40.796875 -18.296875 L 14.265625 -18.296875 C 14.554688 -14.703125 15.578125 -12.085938 17.328125 -10.453125 C 19.078125 -8.828125 21.460938 -8.015625 24.484375 -8.015625 C 26.847656 -8.015625 28.765625 -8.457031 30.234375 -9.34375 C 31.710938 -10.226562 32.898438 -11.566406 33.796875 -13.359375 L 34.578125 -13.359375 L 41.46875 -8.953125 C 40.125 -6.054688 38.09375 -3.707031 35.375 -1.90625 C 32.65625 -0.113281 29.023438 0.78125 24.484375 0.78125 C 20.210938 0.78125 16.523438 -0.0234375 13.421875 -1.640625 C 10.316406 -3.265625 7.921875 -5.679688 6.234375 -8.890625 C 4.546875 -12.097656 3.703125 -16.007812 3.703125 -20.625 C 3.703125 -25.3125 4.585938 -29.265625 6.359375 -32.484375 C 8.128906 -35.703125 10.523438 -38.101562 13.546875 -39.6875 C 16.566406 -41.28125 19.960938 -42.078125 23.734375 -42.078125 C 29.566406 -42.078125 34.035156 -40.523438 37.140625 -37.421875 C 40.253906 -34.328125 41.8125 -29.789062 41.8125 -23.8125 C 41.8125 -21.632812 41.734375 -19.945312 41.578125 -18.75 Z M 31.890625 -25 C 31.785156 -28.144531 31.050781 -30.4375 29.6875 -31.875 C 28.332031 -33.3125 26.347656 -34.03125 23.734375 -34.03125 C 18.492188 -34.03125 15.410156 -31.019531 14.484375 -25 Z M 31.890625 -25 "/></g></g></g><g fill="#ffffff" fill-opacity="1"><g transform="translate(336.3339, 83.827228)"><g><path d="M 24.0625 0.78125 C 20.070312 0.78125 16.539062 -0.046875 13.46875 -1.703125 C 10.40625 -3.359375 8.007812 -5.796875 6.28125 -9.015625 C 4.5625 -12.234375 3.703125 -16.101562 3.703125 -20.625 C 3.703125 -25.164062 4.5625 -29.046875 6.28125 -32.265625 C 8.007812 -35.484375 10.394531 -37.921875 13.4375 -39.578125 C 16.476562 -41.242188 19.957031 -42.078125 23.875 -42.078125 C 32.582031 -42.078125 38.160156 -38.914062 40.609375 -32.59375 L 33.5 -27.515625 L 32.71875 -27.515625 C 31.863281 -29.460938 30.753906 -30.910156 29.390625 -31.859375 C 28.035156 -32.804688 26.195312 -33.28125 23.875 -33.28125 C 20.882812 -33.28125 18.550781 -32.242188 16.875 -30.171875 C 15.207031 -28.097656 14.375 -24.914062 14.375 -20.625 C 14.375 -16.382812 15.222656 -13.222656 16.921875 -11.140625 C 18.617188 -9.054688 21 -8.015625 24.0625 -8.015625 C 26.3125 -8.015625 28.210938 -8.617188 29.765625 -9.828125 C 31.328125 -11.035156 32.445312 -12.773438 33.125 -15.046875 L 33.90625 -15.125 L 41.28125 -11.078125 C 40.238281 -7.585938 38.300781 -4.738281 35.46875 -2.53125 C 32.632812 -0.320312 28.832031 0.78125 24.0625 0.78125 Z M 24.0625 0.78125 "/></g></g></g><g fill="#ffffff" fill-opacity="1"><g transform="translate(378.88895, 83.827228)"><g><path d="M 5.953125 0 L 5.953125 -57.859375 L 16.3125 -57.859375 L 16.3125 -35.890625 L 17.109375 -35.75 C 18.484375 -37.769531 20.164062 -39.328125 22.15625 -40.421875 C 24.15625 -41.523438 26.5625 -42.078125 29.375 -42.078125 C 38.488281 -42.078125 43.046875 -36.910156 43.046875 -26.578125 L 43.046875 0 L 32.671875 0 L 32.671875 -25.265625 C 32.671875 -28.085938 32.109375 -30.132812 30.984375 -31.40625 C 29.867188 -32.675781 28.125 -33.3125 25.75 -33.3125 C 22.851562 -33.3125 20.554688 -32.34375 18.859375 -30.40625 C 17.160156 -28.476562 16.3125 -25.46875 16.3125 -21.375 L 16.3125 0 Z M 5.953125 0 "/></g></g></g><g fill="#ffffff" fill-opacity="1"><g transform="translate(427.245273, 83.827228)"><g><path d="M 5.953125 0 L 5.953125 -41.28125 L 15.90625 -41.28125 L 15.90625 -35.21875 L 16.6875 -35.03125 C 19.257812 -39.726562 23.425781 -42.078125 29.1875 -42.078125 C 33.957031 -42.078125 37.457031 -40.773438 39.6875 -38.171875 C 41.925781 -35.578125 43.046875 -31.800781 43.046875 -26.84375 L 43.046875 0 L 32.671875 0 L 32.671875 -25.5625 C 32.671875 -28.3125 32.117188 -30.289062 31.015625 -31.5 C 29.921875 -32.707031 28.164062 -33.3125 25.75 -33.3125 C 22.78125 -33.3125 20.460938 -32.347656 18.796875 -30.421875 C 17.140625 -28.503906 16.3125 -25.488281 16.3125 -21.375 L 16.3125 0 Z M 5.953125 0 "/></g></g></g><g fill="#ffffff" fill-opacity="1"><g transform="translate(475.601596, 83.827228)"><g><path d="M 24 0.78125 C 19.945312 0.78125 16.394531 -0.046875 13.34375 -1.703125 C 10.289062 -3.359375 7.921875 -5.789062 6.234375 -9 C 4.546875 -12.207031 3.703125 -16.082031 3.703125 -20.625 C 3.703125 -25.164062 4.546875 -29.046875 6.234375 -32.265625 C 7.921875 -35.484375 10.289062 -37.921875 13.34375 -39.578125 C 16.394531 -41.242188 19.945312 -42.078125 24 -42.078125 C 28.039062 -42.078125 31.585938 -41.242188 34.640625 -39.578125 C 37.691406 -37.921875 40.066406 -35.484375 41.765625 -32.265625 C 43.460938 -29.046875 44.3125 -25.164062 44.3125 -20.625 C 44.3125 -16.082031 43.460938 -12.207031 41.765625 -9 C 40.066406 -5.789062 37.691406 -3.359375 34.640625 -1.703125 C 31.585938 -0.046875 28.039062 0.78125 24 0.78125 Z M 24 -8.015625 C 30.40625 -8.015625 33.609375 -12.21875 33.609375 -20.625 C 33.609375 -24.988281 32.785156 -28.1875 31.140625 -30.21875 C 29.492188 -32.257812 27.113281 -33.28125 24 -33.28125 C 17.582031 -33.28125 14.375 -29.0625 14.375 -20.625 C 14.375 -12.21875 17.582031 -8.015625 24 -8.015625 Z M 24 -8.015625 "/></g></g></g><g fill="#ffffff" fill-opacity="1"><g transform="translate(523.583667, 83.827228)"><g><path d="M 17.140625 0.78125 C 13.421875 0.78125 10.582031 -0.21875 8.625 -2.21875 C 6.664062 -4.226562 5.6875 -7.28125 5.6875 -11.375 L 5.6875 -57.859375 L 16.0625 -57.859375 L 16.0625 -11.796875 C 16.0625 -9.273438 17.109375 -8.015625 19.203125 -8.015625 C 19.796875 -8.015625 20.429688 -8.113281 21.109375 -8.3125 L 21.640625 -8.15625 L 22.5625 -0.1875 C 21.988281 0.113281 21.226562 0.347656 20.28125 0.515625 C 19.332031 0.691406 18.285156 0.78125 17.140625 0.78125 Z M 17.140625 0.78125 "/></g></g></g><g fill="#ffffff" fill-opacity="1"><g transform="translate(547.312676, 83.827228)"><g><path d="M 24 0.78125 C 19.945312 0.78125 16.394531 -0.046875 13.34375 -1.703125 C 10.289062 -3.359375 7.921875 -5.789062 6.234375 -9 C 4.546875 -12.207031 3.703125 -16.082031 3.703125 -20.625 C 3.703125 -25.164062 4.546875 -29.046875 6.234375 -32.265625 C 7.921875 -35.484375 10.289062 -37.921875 13.34375 -39.578125 C 16.394531 -41.242188 19.945312 -42.078125 24 -42.078125 C 28.039062 -42.078125 31.585938 -41.242188 34.640625 -39.578125 C 37.691406 -37.921875 40.066406 -35.484375 41.765625 -32.265625 C 43.460938 -29.046875 44.3125 -25.164062 44.3125 -20.625 C 44.3125 -16.082031 43.460938 -12.207031 41.765625 -9 C 40.066406 -5.789062 37.691406 -3.359375 34.640625 -1.703125 C 31.585938 -0.046875 28.039062 0.78125 24 0.78125 Z M 24 -8.015625 C 30.40625 -8.015625 33.609375 -12.21875 33.609375 -20.625 C 33.609375 -24.988281 32.785156 -28.1875 31.140625 -30.21875 C 29.492188 -32.257812 27.113281 -33.28125 24 -33.28125 C 17.582031 -33.28125 14.375 -29.0625 14.375 -20.625 C 14.375 -12.21875 17.582031 -8.015625 24 -8.015625 Z M 24 -8.015625 "/></g></g></g><g fill="#ffffff" fill-opacity="1"><g transform="translate(595.294701, 83.827228)"><g><path d="M 21.40625 17.515625 C 14.59375 17.515625 9.5625 16.515625 6.3125 14.515625 C 3.070312 12.523438 1.453125 9.742188 1.453125 6.171875 C 1.453125 4.003906 2.144531 2.226562 3.53125 0.84375 C 4.914062 -0.539062 6.90625 -1.472656 9.5 -1.953125 L 9.5 -2.734375 C 8.101562 -3.578125 7.097656 -4.515625 6.484375 -5.546875 C 5.878906 -6.585938 5.578125 -7.796875 5.578125 -9.171875 C 5.578125 -12.492188 7.734375 -14.726562 12.046875 -15.875 L 12.046875 -16.65625 C 9.828125 -17.925781 8.15625 -19.503906 7.03125 -21.390625 C 5.914062 -23.273438 5.359375 -25.550781 5.359375 -28.21875 C 5.359375 -30.96875 5.988281 -33.382812 7.25 -35.46875 C 8.507812 -37.550781 10.351562 -39.171875 12.78125 -40.328125 C 15.21875 -41.492188 18.128906 -42.078125 21.515625 -42.078125 C 24.960938 -42.078125 27.707031 -41.476562 29.75 -40.28125 C 31.03125 -42.125 31.769531 -44.253906 31.96875 -46.671875 L 32.75 -47.15625 L 40.203125 -45.328125 C 39.972656 -43.359375 39.394531 -41.703125 38.46875 -40.359375 C 37.550781 -39.023438 36.117188 -37.835938 34.171875 -36.796875 L 34.171875 -35.96875 C 36.492188 -33.925781 37.65625 -31.070312 37.65625 -27.40625 C 37.65625 -24.851562 37.019531 -22.566406 35.75 -20.546875 C 34.476562 -18.523438 32.625 -16.925781 30.1875 -15.75 C 27.75 -14.582031 24.859375 -14 21.515625 -14 L 19.953125 -14.03125 C 18.953125 -14.082031 18.253906 -14.109375 17.859375 -14.109375 C 16.910156 -14.109375 16.164062 -13.851562 15.625 -13.34375 C 15.09375 -12.832031 14.828125 -12.175781 14.828125 -11.375 C 14.828125 -10.5 15.175781 -9.816406 15.875 -9.328125 C 16.570312 -8.847656 17.59375 -8.582031 18.9375 -8.53125 L 28.1875 -8.203125 C 37.320312 -7.921875 41.890625 -3.988281 41.890625 3.59375 C 41.890625 6.257812 41.207031 8.632812 39.84375 10.71875 C 38.476562 12.800781 36.273438 14.453125 33.234375 15.671875 C 30.191406 16.898438 26.25 17.515625 21.40625 17.515625 Z M 21.515625 -21.265625 C 23.515625 -21.265625 25.078125 -21.847656 26.203125 -23.015625 C 27.328125 -24.191406 27.890625 -25.863281 27.890625 -28.03125 C 27.890625 -30.207031 27.328125 -31.875 26.203125 -33.03125 C 25.078125 -34.1875 23.515625 -34.765625 21.515625 -34.765625 C 19.492188 -34.765625 17.9375 -34.1875 16.84375 -33.03125 C 15.75 -31.875 15.203125 -30.207031 15.203125 -28.03125 C 15.203125 -25.832031 15.75 -24.15625 16.84375 -23 C 17.9375 -21.84375 19.492188 -21.265625 21.515625 -21.265625 Z M 21.40625 10 C 24.945312 10 27.519531 9.5 29.125 8.5 C 30.738281 7.5 31.546875 6.203125 31.546875 4.609375 C 31.546875 3.304688 31.132812 2.347656 30.3125 1.734375 C 29.488281 1.128906 28.179688 0.800781 26.390625 0.75 L 18.234375 0.375 C 17.953125 0.375 17.691406 0.359375 17.453125 0.328125 C 17.222656 0.304688 16.992188 0.296875 16.765625 0.296875 C 15.023438 0.296875 13.695312 0.671875 12.78125 1.421875 C 11.875 2.171875 11.421875 3.207031 11.421875 4.53125 C 11.421875 6.28125 12.253906 7.628906 13.921875 8.578125 C 15.597656 9.523438 18.09375 10 21.40625 10 Z M 21.40625 10 "/></g></g></g><g fill="#ffffff" fill-opacity="1"><g transform="translate(638.224048, 83.827228)"><g><path d="M 11.109375 -46.21875 C 9.242188 -46.21875 7.722656 -46.785156 6.546875 -47.921875 C 5.378906 -49.054688 4.796875 -50.523438 4.796875 -52.328125 C 4.796875 -54.097656 5.378906 -55.550781 6.546875 -56.6875 C 7.722656 -57.820312 9.242188 -58.390625 11.109375 -58.390625 C 12.359375 -58.390625 13.46875 -58.125 14.4375 -57.59375 C 15.414062 -57.070312 16.171875 -56.359375 16.703125 -55.453125 C 17.242188 -54.546875 17.515625 -53.503906 17.515625 -52.328125 C 17.515625 -51.148438 17.242188 -50.097656 16.703125 -49.171875 C 16.171875 -48.253906 15.414062 -47.53125 14.4375 -47 C 13.46875 -46.476562 12.359375 -46.21875 11.109375 -46.21875 Z M 5.953125 0 L 5.953125 -41.28125 L 16.3125 -41.28125 L 16.3125 0 Z M 5.953125 0 "/></g></g></g><g fill="#ffffff" fill-opacity="1"><g transform="translate(660.455957, 83.827228)"><g><path d="M 40.796875 -18.296875 L 14.265625 -18.296875 C 14.554688 -14.703125 15.578125 -12.085938 17.328125 -10.453125 C 19.078125 -8.828125 21.460938 -8.015625 24.484375 -8.015625 C 26.847656 -8.015625 28.765625 -8.457031 30.234375 -9.34375 C 31.710938 -10.226562 32.898438 -11.566406 33.796875 -13.359375 L 34.578125 -13.359375 L 41.46875 -8.953125 C 40.125 -6.054688 38.09375 -3.707031 35.375 -1.90625 C 32.65625 -0.113281 29.023438 0.78125 24.484375 0.78125 C 20.210938 0.78125 16.523438 -0.0234375 13.421875 -1.640625 C 10.316406 -3.265625 7.921875 -5.679688 6.234375 -8.890625 C 4.546875 -12.097656 3.703125 -16.007812 3.703125 -20.625 C 3.703125 -25.3125 4.585938 -29.265625 6.359375 -32.484375 C 8.128906 -35.703125 10.523438 -38.101562 13.546875 -39.6875 C 16.566406 -41.28125 19.960938 -42.078125 23.734375 -42.078125 C 29.566406 -42.078125 34.035156 -40.523438 37.140625 -37.421875 C 40.253906 -34.328125 41.8125 -29.789062 41.8125 -23.8125 C 41.8125 -21.632812 41.734375 -19.945312 41.578125 -18.75 Z M 31.890625 -25 C 31.785156 -28.144531 31.050781 -30.4375 29.6875 -31.875 C 28.332031 -33.3125 26.347656 -34.03125 23.734375 -34.03125 C 18.492188 -34.03125 15.410156 -31.019531 14.484375 -25 Z M 31.890625 -25 "/></g></g></g><g fill="#ffffff" fill-opacity="1"><g transform="translate(705.331535, 83.827228)"><g><path d="M 19.3125 0.78125 C 16.488281 0.78125 13.90625 0.453125 11.5625 -0.203125 C 9.21875 -0.867188 7.210938 -1.78125 5.546875 -2.9375 C 3.890625 -4.09375 2.664062 -5.421875 1.875 -6.921875 L 7.640625 -13.140625 L 8.421875 -13.140625 C 9.796875 -11.296875 11.414062 -9.910156 13.28125 -8.984375 C 15.15625 -8.054688 17.191406 -7.59375 19.390625 -7.59375 C 21.410156 -7.59375 22.929688 -7.953125 23.953125 -8.671875 C 24.972656 -9.398438 25.484375 -10.441406 25.484375 -11.796875 C 25.484375 -12.835938 25.113281 -13.710938 24.375 -14.421875 C 23.644531 -15.140625 22.457031 -15.695312 20.8125 -16.09375 L 15.34375 -17.40625 C 11.25 -18.375 8.257812 -19.863281 6.375 -21.875 C 4.5 -23.882812 3.5625 -26.4375 3.5625 -29.53125 C 3.5625 -32.101562 4.210938 -34.335938 5.515625 -36.234375 C 6.828125 -38.128906 8.675781 -39.578125 11.0625 -40.578125 C 13.445312 -41.578125 16.222656 -42.078125 19.390625 -42.078125 C 23.109375 -42.078125 26.1875 -41.539062 28.625 -40.46875 C 31.070312 -39.394531 32.984375 -37.957031 34.359375 -36.15625 L 28.828125 -30.171875 L 28.078125 -30.171875 C 26.921875 -31.460938 25.625 -32.40625 24.1875 -33 C 22.757812 -33.601562 21.160156 -33.90625 19.390625 -33.90625 C 15.296875 -33.90625 13.25 -32.632812 13.25 -30.09375 C 13.25 -29.019531 13.628906 -28.144531 14.390625 -27.46875 C 15.148438 -26.800781 16.492188 -26.253906 18.421875 -25.828125 L 23.5 -24.703125 C 27.695312 -23.804688 30.757812 -22.363281 32.6875 -20.375 C 34.625 -18.394531 35.59375 -15.734375 35.59375 -12.390625 C 35.59375 -9.765625 34.941406 -7.453125 33.640625 -5.453125 C 32.347656 -3.460938 30.476562 -1.925781 28.03125 -0.84375 C 25.582031 0.238281 22.675781 0.78125 19.3125 0.78125 Z M 19.3125 0.78125 "/></g></g></g></svg>