<svg xmlns="http://www.w3.org/2000/svg" xmlns:xlink="http://www.w3.org/1999/xlink" width="1024" zoomAndPan="magnify" viewBox="0 0 768 767.999994" height="1024" preserveAspectRatio="xMidYMid meet" version="1.0"><defs><g/><clipPath id="1017e96a9f"><path d="M 384 0 C 171.921875 0 0 171.921875 0 384 C 0 596.078125 171.921875 768 384 768 C 596.078125 768 768 596.078125 768 384 C 768 171.921875 596.078125 0 384 0 " clip-rule="nonzero"/></clipPath></defs><g clip-path="url(#1017e96a9f)"><rect x="-76.8" width="921.6" fill="#545454" y="-76.799999" height="921.599993" fill-opacity="1"/></g><g fill="#ffffff" fill-opacity="1"><g transform="translate(13.15691, 458.516218)"><g><path d="M 76.28125 2 C 63.425781 2 52.097656 -0.671875 42.296875 -6.015625 C 32.492188 -11.359375 24.820312 -19.390625 19.28125 -30.109375 C 13.75 -40.835938 10.984375 -54.066406 10.984375 -69.796875 C 10.984375 -85.515625 13.75 -98.734375 19.28125 -109.453125 C 24.820312 -120.179688 32.492188 -128.21875 42.296875 -133.5625 C 52.097656 -138.914062 63.425781 -141.59375 76.28125 -141.59375 C 89.707031 -141.59375 101.113281 -138.960938 110.5 -133.703125 C 119.894531 -128.453125 126.597656 -120.453125 130.609375 -109.703125 L 110.46875 -97.390625 L 108.078125 -97.484375 C 105.085938 -104.734375 101.03125 -109.929688 95.90625 -113.078125 C 90.78125 -116.234375 84.238281 -117.8125 76.28125 -117.8125 C 64.695312 -117.8125 55.660156 -113.976562 49.171875 -106.3125 C 42.679688 -98.644531 39.4375 -86.472656 39.4375 -69.796875 C 39.4375 -53.179688 42.679688 -41.035156 49.171875 -33.359375 C 55.660156 -25.691406 64.695312 -21.859375 76.28125 -21.859375 C 94.425781 -21.859375 105.535156 -30.675781 109.609375 -48.3125 L 111.984375 -48.3125 L 132.328125 -37.71875 C 128.503906 -24.476562 121.976562 -14.546875 112.75 -7.921875 C 103.519531 -1.304688 91.363281 2 76.28125 2 Z M 76.28125 2 "/></g></g></g><g fill="#ffffff" fill-opacity="1"><g transform="translate(150.064354, 458.516218)"><g><path d="M 41.046875 2 C 34.304688 2 28.453125 0.757812 23.484375 -1.71875 C 18.523438 -4.195312 14.707031 -7.835938 12.03125 -12.640625 C 9.351562 -17.453125 8.015625 -23.234375 8.015625 -29.984375 C 8.015625 -36.210938 9.351562 -41.441406 12.03125 -45.671875 C 14.707031 -49.910156 18.84375 -53.382812 24.4375 -56.09375 C 30.039062 -58.800781 37.363281 -60.882812 46.40625 -62.34375 C 52.707031 -63.363281 57.492188 -64.476562 60.765625 -65.6875 C 64.046875 -66.894531 66.257812 -68.257812 67.40625 -69.78125 C 68.550781 -71.3125 69.125 -73.253906 69.125 -75.609375 C 69.125 -78.984375 67.945312 -81.5625 65.59375 -83.34375 C 63.238281 -85.125 59.320312 -86.015625 53.84375 -86.015625 C 47.988281 -86.015625 42.421875 -84.707031 37.140625 -82.09375 C 31.859375 -79.488281 27.273438 -76.054688 23.390625 -71.796875 L 21.484375 -71.796875 L 10.40625 -88.5 C 15.75 -94.425781 22.269531 -99.039062 29.96875 -102.34375 C 37.675781 -105.65625 46.082031 -107.3125 55.1875 -107.3125 C 69.125 -107.3125 79.210938 -104.351562 85.453125 -98.4375 C 91.691406 -92.519531 94.8125 -84.117188 94.8125 -73.234375 L 94.8125 -27.5 C 94.8125 -22.789062 96.878906 -20.4375 101.015625 -20.4375 C 102.609375 -20.4375 104.164062 -20.722656 105.6875 -21.296875 L 107.03125 -20.90625 L 108.9375 -2.484375 C 107.46875 -1.523438 105.425781 -0.742188 102.8125 -0.140625 C 100.207031 0.460938 97.347656 0.765625 94.234375 0.765625 C 87.929688 0.765625 83.015625 -0.441406 79.484375 -2.859375 C 75.953125 -5.285156 73.421875 -9.070312 71.890625 -14.21875 L 69.890625 -14.421875 C 64.734375 -3.472656 55.117188 2 41.046875 2 Z M 49.453125 -17.765625 C 55.566406 -17.765625 60.453125 -19.816406 64.109375 -23.921875 C 67.765625 -28.023438 69.59375 -33.734375 69.59375 -41.046875 L 69.59375 -51.75 L 67.78125 -52.125 C 66.195312 -50.851562 64.113281 -49.785156 61.53125 -48.921875 C 58.957031 -48.066406 55.25 -47.226562 50.40625 -46.40625 C 44.675781 -45.445312 40.554688 -43.804688 38.046875 -41.484375 C 35.535156 -39.160156 34.28125 -35.867188 34.28125 -31.609375 C 34.28125 -27.085938 35.613281 -23.648438 38.28125 -21.296875 C 40.957031 -18.941406 44.679688 -17.765625 49.453125 -17.765625 Z M 49.453125 -17.765625 "/></g></g></g><g fill="#ffffff" fill-opacity="1"><g transform="translate(261.098774, 458.516218)"><g><path d="M 43.734375 2 C 34.242188 2 27 -0.554688 22 -5.671875 C 17.007812 -10.796875 14.515625 -18.582031 14.515625 -29.03125 L 14.515625 -147.609375 L 40.953125 -147.609375 L 40.953125 -30.078125 C 40.953125 -23.648438 43.628906 -20.4375 48.984375 -20.4375 C 50.503906 -20.4375 52.125 -20.6875 53.84375 -21.1875 L 55.1875 -20.8125 L 57.578125 -0.484375 C 56.109375 0.285156 54.164062 0.890625 51.75 1.328125 C 49.332031 1.773438 46.660156 2 43.734375 2 Z M 43.734375 2 "/></g></g></g><g fill="#ffffff" fill-opacity="1"><g transform="translate(321.628285, 458.516218)"><g><path d="M 72.65625 -25.109375 L 79.53125 -5.53125 C 76.664062 -3.175781 73.066406 -1.332031 68.734375 0 C 64.410156 1.332031 59.507812 2 54.03125 2 C 42.644531 2 33.988281 -1.097656 28.0625 -7.296875 C 22.144531 -13.503906 19.1875 -22.53125 19.1875 -34.375 L 19.1875 -84.40625 L 3.15625 -84.40625 L 3.15625 -105.40625 L 19.1875 -105.40625 L 19.1875 -125.9375 L 45.640625 -130.234375 L 45.640625 -105.40625 L 75.515625 -105.40625 L 75.515625 -84.40625 L 45.640625 -84.40625 L 45.640625 -36.28125 C 45.640625 -31.0625 46.71875 -27.257812 48.875 -24.875 C 51.039062 -22.488281 54.191406 -21.296875 58.328125 -21.296875 C 63.046875 -21.296875 67.15625 -22.566406 70.65625 -25.109375 Z M 72.65625 -25.109375 "/></g></g></g><g fill="#ffffff" fill-opacity="1"><g transform="translate(403.448144, 458.516218)"><g><path d="M 104.0625 -46.6875 L 36.375 -46.6875 C 37.132812 -37.519531 39.742188 -30.851562 44.203125 -26.6875 C 48.660156 -22.519531 54.738281 -20.4375 62.4375 -20.4375 C 68.488281 -20.4375 73.390625 -21.5625 77.140625 -23.8125 C 80.898438 -26.070312 83.925781 -29.492188 86.21875 -34.078125 L 88.21875 -34.078125 L 105.78125 -22.8125 C 102.34375 -15.4375 97.15625 -9.457031 90.21875 -4.875 C 83.28125 -0.289062 74.019531 2 62.4375 2 C 51.550781 2 42.144531 -0.0664062 34.21875 -4.203125 C 26.300781 -8.335938 20.191406 -14.492188 15.890625 -22.671875 C 11.597656 -30.847656 9.453125 -40.828125 9.453125 -52.609375 C 9.453125 -64.578125 11.710938 -74.664062 16.234375 -82.875 C 20.753906 -91.082031 26.863281 -97.207031 34.5625 -101.25 C 42.257812 -105.289062 50.914062 -107.3125 60.53125 -107.3125 C 75.425781 -107.3125 86.832031 -103.363281 94.75 -95.46875 C 102.675781 -87.582031 106.640625 -76 106.640625 -60.71875 C 106.640625 -55.1875 106.453125 -50.890625 106.078125 -47.828125 Z M 81.34375 -63.78125 C 81.09375 -71.800781 79.234375 -77.640625 75.765625 -81.296875 C 72.296875 -84.953125 67.21875 -86.78125 60.53125 -86.78125 C 47.164062 -86.78125 39.304688 -79.113281 36.953125 -63.78125 Z M 81.34375 -63.78125 "/></g></g></g><g fill="#ffffff" fill-opacity="1"><g transform="translate(517.91957, 458.516218)"><g><path d="M 61.390625 2 C 51.203125 2 42.191406 -0.113281 34.359375 -4.34375 C 26.535156 -8.570312 20.425781 -14.789062 16.03125 -23 C 11.644531 -31.21875 9.453125 -41.085938 9.453125 -52.609375 C 9.453125 -64.191406 11.644531 -74.085938 16.03125 -82.296875 C 20.425781 -90.503906 26.503906 -96.722656 34.265625 -100.953125 C 42.035156 -105.191406 50.914062 -107.3125 60.90625 -107.3125 C 83.125 -107.3125 97.351562 -99.257812 103.59375 -83.15625 L 85.453125 -70.171875 L 83.4375 -70.171875 C 81.28125 -75.140625 78.46875 -78.832031 75 -81.25 C 71.53125 -83.664062 66.832031 -84.875 60.90625 -84.875 C 53.269531 -84.875 47.316406 -82.234375 43.046875 -76.953125 C 38.785156 -71.671875 36.65625 -63.554688 36.65625 -52.609375 C 36.65625 -41.785156 38.816406 -33.71875 43.140625 -28.40625 C 47.472656 -23.09375 53.554688 -20.4375 61.390625 -20.4375 C 67.117188 -20.4375 71.972656 -21.976562 75.953125 -25.0625 C 79.929688 -28.144531 82.78125 -32.582031 84.5 -38.375 L 86.5 -38.578125 L 105.3125 -28.265625 C 102.632812 -19.347656 97.679688 -12.070312 90.453125 -6.4375 C 83.234375 -0.8125 73.546875 2 61.390625 2 Z M 61.390625 2 "/></g></g></g><g fill="#ffffff" fill-opacity="1"><g transform="translate(626.471707, 458.516218)"><g><path d="M 15.1875 0 L 15.1875 -147.609375 L 41.625 -147.609375 L 41.625 -91.5625 L 43.625 -91.171875 C 47.132812 -96.328125 51.429688 -100.304688 56.515625 -103.109375 C 61.609375 -105.910156 67.753906 -107.3125 74.953125 -107.3125 C 98.179688 -107.3125 109.796875 -94.132812 109.796875 -67.78125 L 109.796875 0 L 83.34375 0 L 83.34375 -64.4375 C 83.34375 -71.632812 81.910156 -76.851562 79.046875 -80.09375 C 76.179688 -83.34375 71.726562 -84.96875 65.6875 -84.96875 C 58.300781 -84.96875 52.441406 -82.5 48.109375 -77.5625 C 43.785156 -72.632812 41.625 -64.953125 41.625 -54.515625 L 41.625 0 Z M 15.1875 0 "/></g></g></g></svg>